<svg width="24" height="25" viewBox="0 0 24 25" fill="none" xmlns="http://www.w3.org/2000/svg">
<g id="bar-chart-square-02">
<path id="Icon" d="M8 15.2241V17.2241M12 11.2241V17.2241M16 7.22412V17.2241M7.8 21.2241H16.2C17.8802 21.2241 18.7202 21.2241 19.362 20.8971C19.9265 20.6095 20.3854 20.1506 20.673 19.5861C21 18.9444 21 18.1043 21 16.4241V8.02412C21 6.34396 21 5.50388 20.673 4.86215C20.3854 4.29766 19.9265 3.83872 19.362 3.5511C18.7202 3.22412 17.8802 3.22412 16.2 3.22412H7.8C6.11984 3.22412 5.27976 3.22412 4.63803 3.5511C4.07354 3.83872 3.6146 4.29766 3.32698 4.86215C3 5.50388 3 6.34396 3 8.02412V16.4241C3 18.1043 3 18.9444 3.32698 19.5861C3.6146 20.1506 4.07354 20.6095 4.63803 20.8971C5.27976 21.2241 6.11984 21.2241 7.8 21.2241Z" stroke="#667085" stroke-width="2" stroke-linecap="round" stroke-linejoin="round"/>
</g>
</svg>
