<svg width="24" height="25" viewBox="0 0 24 25" fill="none" xmlns="http://www.w3.org/2000/svg">
<g id="check-done-01">
<path id="Icon" d="M6 15.2241L8 17.2241L12.5 12.7241M8 8.22412V5.42412C8 4.30402 8 3.74396 8.21799 3.31614C8.40973 2.93982 8.71569 2.63385 9.09202 2.44211C9.51984 2.22412 10.0799 2.22412 11.2 2.22412H18.8C19.9201 2.22412 20.4802 2.22412 20.908 2.44211C21.2843 2.63385 21.5903 2.93982 21.782 3.31614C22 3.74396 22 4.30402 22 5.42412V13.0241C22 14.1442 22 14.7043 21.782 15.1321C21.5903 15.5084 21.2843 15.8144 20.908 16.0061C20.4802 16.2241 19.9201 16.2241 18.8 16.2241H16M5.2 22.2241H12.8C13.9201 22.2241 14.4802 22.2241 14.908 22.0061C15.2843 21.8144 15.5903 21.5084 15.782 21.1321C16 20.7043 16 20.1442 16 19.0241V11.4241C16 10.304 16 9.74396 15.782 9.31614C15.5903 8.93982 15.2843 8.63385 14.908 8.44211C14.4802 8.22412 13.9201 8.22412 12.8 8.22412H5.2C4.0799 8.22412 3.51984 8.22412 3.09202 8.44211C2.71569 8.63385 2.40973 8.93982 2.21799 9.31614C2 9.74396 2 10.304 2 11.4241V19.0241C2 20.1442 2 20.7043 2.21799 21.1321C2.40973 21.5084 2.71569 21.8144 3.09202 22.0061C3.51984 22.2241 4.07989 22.2241 5.2 22.2241Z" stroke="#667085" stroke-width="2" stroke-linecap="round" stroke-linejoin="round"/>
</g>
</svg>
