<svg width="399" height="182" viewBox="0 0 399 182" fill="none" xmlns="http://www.w3.org/2000/svg">
<circle cx="200" cy="52" r="52" fill="#EAECF0"/>
<g filter="url(#filter0_dd_83_22438)">
<path d="M201.6 16C190.827 16 181.298 21.3233 175.499 29.4829C173.605 29.0363 171.63 28.8 169.6 28.8C155.462 28.8 144 40.2615 144 54.4C144 68.5385 155.462 80 169.6 80L233.6 80C245.971 80 256 69.9712 256 57.6C256 45.2288 245.971 35.2 233.6 35.2C232.721 35.2 231.854 35.2506 231.002 35.349C226.098 23.9677 214.78 16 201.6 16Z" fill="#F9FAFB"/>
<ellipse cx="169.6" cy="54.4" rx="25.6" ry="25.6" fill="url(#paint0_linear_83_22438)"/>
<circle cx="201.6" cy="48" r="32" fill="url(#paint1_linear_83_22438)"/>
<ellipse cx="233.6" cy="57.5999" rx="22.4" ry="22.4" fill="url(#paint2_linear_83_22438)"/>
</g>
<circle cx="145" cy="19" r="5" fill="#F2F4F7"/>
<circle cx="142" cy="109" r="7" fill="#F2F4F7"/>
<circle cx="269" cy="35" r="7" fill="#F2F4F7"/>
<circle cx="258" cy="8" r="4" fill="#F2F4F7"/>
<path d="M180.663 140.364V152H178.788L173.305 144.074H173.209V152H171.101V140.364H172.987L178.464 148.295H178.567V140.364H180.663ZM186.676 152.17C185.824 152.17 185.085 151.983 184.46 151.608C183.835 151.233 183.35 150.708 183.006 150.034C182.665 149.36 182.494 148.572 182.494 147.67C182.494 146.769 182.665 145.979 183.006 145.301C183.35 144.623 183.835 144.097 184.46 143.722C185.085 143.347 185.824 143.159 186.676 143.159C187.528 143.159 188.267 143.347 188.892 143.722C189.517 144.097 190 144.623 190.341 145.301C190.686 145.979 190.858 146.769 190.858 147.67C190.858 148.572 190.686 149.36 190.341 150.034C190 150.708 189.517 151.233 188.892 151.608C188.267 151.983 187.528 152.17 186.676 152.17ZM186.688 150.523C187.15 150.523 187.536 150.396 187.847 150.142C188.157 149.884 188.388 149.54 188.54 149.108C188.695 148.676 188.773 148.195 188.773 147.665C188.773 147.131 188.695 146.648 188.54 146.216C188.388 145.78 188.157 145.434 187.847 145.176C187.536 144.919 187.15 144.79 186.688 144.79C186.214 144.79 185.82 144.919 185.506 145.176C185.195 145.434 184.962 145.78 184.807 146.216C184.655 146.648 184.58 147.131 184.58 147.665C184.58 148.195 184.655 148.676 184.807 149.108C184.962 149.54 185.195 149.884 185.506 150.142C185.82 150.396 186.214 150.523 186.688 150.523ZM199.811 152.153C199.125 152.153 198.512 151.977 197.97 151.625C197.429 151.273 197 150.761 196.686 150.091C196.372 149.42 196.214 148.606 196.214 147.648C196.214 146.678 196.374 145.86 196.692 145.193C197.014 144.523 197.447 144.017 197.993 143.676C198.538 143.331 199.146 143.159 199.817 143.159C200.328 143.159 200.749 143.246 201.078 143.42C201.408 143.591 201.669 143.797 201.862 144.04C202.055 144.278 202.205 144.504 202.311 144.716H202.396V140.364H204.459V152H202.436V150.625H202.311C202.205 150.837 202.052 151.062 201.851 151.301C201.65 151.536 201.385 151.737 201.055 151.903C200.726 152.07 200.311 152.153 199.811 152.153ZM200.385 150.466C200.821 150.466 201.192 150.348 201.499 150.114C201.805 149.875 202.038 149.544 202.197 149.119C202.357 148.695 202.436 148.201 202.436 147.636C202.436 147.072 202.357 146.581 202.197 146.165C202.042 145.748 201.811 145.424 201.504 145.193C201.201 144.962 200.828 144.847 200.385 144.847C199.927 144.847 199.544 144.966 199.237 145.205C198.93 145.443 198.699 145.773 198.544 146.193C198.389 146.614 198.311 147.095 198.311 147.636C198.311 148.182 198.389 148.669 198.544 149.097C198.703 149.521 198.936 149.856 199.243 150.102C199.554 150.345 199.934 150.466 200.385 150.466ZM209.162 152.176C208.609 152.176 208.111 152.078 207.668 151.881C207.228 151.68 206.88 151.384 206.622 150.994C206.368 150.604 206.241 150.123 206.241 149.551C206.241 149.059 206.332 148.652 206.514 148.33C206.696 148.008 206.944 147.75 207.259 147.557C207.573 147.364 207.927 147.218 208.321 147.119C208.719 147.017 209.13 146.943 209.554 146.898C210.065 146.845 210.48 146.797 210.798 146.756C211.116 146.71 211.348 146.642 211.491 146.551C211.639 146.456 211.713 146.311 211.713 146.114V146.08C211.713 145.652 211.586 145.32 211.332 145.085C211.079 144.85 210.713 144.733 210.236 144.733C209.732 144.733 209.332 144.843 209.037 145.062C208.745 145.282 208.548 145.542 208.446 145.841L206.526 145.568C206.677 145.038 206.927 144.595 207.276 144.239C207.624 143.879 208.05 143.61 208.554 143.432C209.058 143.25 209.615 143.159 210.224 143.159C210.645 143.159 211.063 143.208 211.48 143.307C211.897 143.405 212.277 143.568 212.622 143.795C212.967 144.019 213.243 144.324 213.452 144.71C213.664 145.097 213.77 145.58 213.77 146.159V152H211.793V150.801H211.724C211.599 151.044 211.423 151.271 211.196 151.483C210.973 151.691 210.69 151.86 210.349 151.989C210.012 152.114 209.616 152.176 209.162 152.176ZM209.696 150.665C210.109 150.665 210.467 150.583 210.77 150.42C211.073 150.254 211.306 150.034 211.469 149.761C211.635 149.489 211.719 149.191 211.719 148.869V147.841C211.654 147.894 211.545 147.943 211.389 147.989C211.238 148.034 211.067 148.074 210.878 148.108C210.688 148.142 210.501 148.172 210.315 148.199C210.13 148.225 209.969 148.248 209.832 148.267C209.526 148.309 209.251 148.377 209.009 148.472C208.766 148.566 208.575 148.699 208.435 148.869C208.295 149.036 208.224 149.252 208.224 149.517C208.224 149.896 208.363 150.182 208.639 150.375C208.916 150.568 209.268 150.665 209.696 150.665ZM220.196 143.273V144.864H215.179V143.273H220.196ZM216.418 141.182H218.474V149.375C218.474 149.652 218.516 149.864 218.599 150.011C218.687 150.155 218.8 150.254 218.94 150.307C219.08 150.36 219.236 150.386 219.406 150.386C219.535 150.386 219.652 150.377 219.759 150.358C219.868 150.339 219.952 150.322 220.009 150.307L220.355 151.915C220.245 151.953 220.088 151.994 219.884 152.04C219.683 152.085 219.437 152.112 219.145 152.119C218.63 152.134 218.166 152.057 217.753 151.886C217.34 151.712 217.012 151.443 216.77 151.08C216.531 150.716 216.414 150.261 216.418 149.716V141.182ZM224.428 152.176C223.875 152.176 223.376 152.078 222.933 151.881C222.494 151.68 222.145 151.384 221.888 150.994C221.634 150.604 221.507 150.123 221.507 149.551C221.507 149.059 221.598 148.652 221.78 148.33C221.962 148.008 222.21 147.75 222.524 147.557C222.839 147.364 223.193 147.218 223.587 147.119C223.984 147.017 224.395 146.943 224.82 146.898C225.331 146.845 225.746 146.797 226.064 146.756C226.382 146.71 226.613 146.642 226.757 146.551C226.905 146.456 226.979 146.311 226.979 146.114V146.08C226.979 145.652 226.852 145.32 226.598 145.085C226.344 144.85 225.979 144.733 225.501 144.733C224.998 144.733 224.598 144.843 224.303 145.062C224.011 145.282 223.814 145.542 223.712 145.841L221.791 145.568C221.943 145.038 222.193 144.595 222.541 144.239C222.89 143.879 223.316 143.61 223.82 143.432C224.323 143.25 224.88 143.159 225.49 143.159C225.911 143.159 226.329 143.208 226.746 143.307C227.162 143.405 227.543 143.568 227.888 143.795C228.232 144.019 228.509 144.324 228.717 144.71C228.929 145.097 229.036 145.58 229.036 146.159V152H227.058V150.801H226.99C226.865 151.044 226.689 151.271 226.462 151.483C226.238 151.691 225.956 151.86 225.615 151.989C225.278 152.114 224.882 152.176 224.428 152.176ZM224.962 150.665C225.375 150.665 225.732 150.583 226.036 150.42C226.339 150.254 226.571 150.034 226.734 149.761C226.901 149.489 226.984 149.191 226.984 148.869V147.841C226.92 147.894 226.81 147.943 226.655 147.989C226.503 148.034 226.333 148.074 226.143 148.108C225.954 148.142 225.767 148.172 225.581 148.199C225.395 148.225 225.234 148.248 225.098 148.267C224.791 148.309 224.517 148.377 224.274 148.472C224.032 148.566 223.84 148.699 223.7 148.869C223.56 149.036 223.49 149.252 223.49 149.517C223.49 149.896 223.628 150.182 223.905 150.375C224.181 150.568 224.534 150.665 224.962 150.665Z" fill="#101828"/>
<path d="M0.786488 167.912V166.818H8.42285V167.912H5.22115V177H3.98819V167.912H0.786488ZM11.3399 172.406V177H10.1666V166.818H11.3399V170.557H11.4394C11.6183 170.162 11.8868 169.849 12.2448 169.617C12.606 169.382 13.0866 169.264 13.6865 169.264C14.2069 169.264 14.6626 169.369 15.0537 169.577C15.4448 169.783 15.7481 170.099 15.9635 170.527C16.1823 170.951 16.2916 171.491 16.2916 172.148V177H15.1183V172.227C15.1183 171.621 14.9609 171.152 14.646 170.82C14.3345 170.486 13.902 170.318 13.3485 170.318C12.964 170.318 12.6193 170.399 12.3144 170.562C12.0128 170.724 11.7741 170.961 11.5985 171.273C11.4261 171.584 11.3399 171.962 11.3399 172.406ZM21.6398 177.159C20.904 177.159 20.2693 176.997 19.7357 176.672C19.2054 176.344 18.7961 175.886 18.5077 175.3C18.2227 174.71 18.0802 174.024 18.0802 173.241C18.0802 172.459 18.2227 171.77 18.5077 171.173C18.7961 170.573 19.1971 170.106 19.7108 169.771C20.2279 169.433 20.8311 169.264 21.5205 169.264C21.9182 169.264 22.311 169.33 22.6988 169.463C23.0866 169.596 23.4395 169.811 23.7577 170.109C24.0759 170.404 24.3295 170.795 24.5184 171.283C24.7073 171.77 24.8018 172.37 24.8018 173.082V173.58H18.9154V172.565H23.6086C23.6086 172.134 23.5224 171.75 23.3501 171.412C23.181 171.074 22.9391 170.807 22.6242 170.612C22.3126 170.416 21.9448 170.318 21.5205 170.318C21.0532 170.318 20.6488 170.434 20.3074 170.666C19.9694 170.895 19.7092 171.193 19.5269 171.561C19.3446 171.929 19.2535 172.323 19.2535 172.744V173.42C19.2535 173.997 19.3529 174.486 19.5518 174.887C19.7539 175.285 20.034 175.588 20.392 175.797C20.7499 176.002 21.1659 176.105 21.6398 176.105C21.9481 176.105 22.2265 176.062 22.4751 175.976C22.7269 175.886 22.944 175.754 23.1263 175.578C23.3086 175.399 23.4495 175.177 23.5489 174.912L24.6824 175.23C24.5631 175.615 24.3626 175.953 24.0809 176.244C23.7992 176.533 23.4511 176.758 23.0368 176.92C22.6225 177.08 22.1569 177.159 21.6398 177.159ZM26.5866 177V169.364H27.7201V170.517H27.7996C27.9388 170.139 28.1907 169.833 28.5553 169.597C28.9199 169.362 29.3309 169.244 29.7883 169.244C29.8744 169.244 29.9822 169.246 30.1114 169.249C30.2407 169.253 30.3385 169.258 30.4047 169.264V170.457C30.365 170.447 30.2738 170.433 30.1313 170.413C29.9921 170.389 29.8446 170.378 29.6888 170.378C29.3176 170.378 28.9862 170.456 28.6945 170.612C28.4062 170.764 28.1775 170.976 28.0084 171.248C27.8427 171.516 27.7599 171.823 27.7599 172.168V177H26.5866ZM34.7648 177.159C34.029 177.159 33.3943 176.997 32.8607 176.672C32.3304 176.344 31.9211 175.886 31.6327 175.3C31.3477 174.71 31.2052 174.024 31.2052 173.241C31.2052 172.459 31.3477 171.77 31.6327 171.173C31.9211 170.573 32.3221 170.106 32.8358 169.771C33.3529 169.433 33.9561 169.264 34.6455 169.264C35.0432 169.264 35.436 169.33 35.8238 169.463C36.2116 169.596 36.5645 169.811 36.8827 170.109C37.2009 170.404 37.4545 170.795 37.6434 171.283C37.8323 171.77 37.9268 172.37 37.9268 173.082V173.58H32.0404V172.565H36.7336C36.7336 172.134 36.6474 171.75 36.4751 171.412C36.306 171.074 36.0641 170.807 35.7492 170.612C35.4376 170.416 35.0698 170.318 34.6455 170.318C34.1782 170.318 33.7738 170.434 33.4324 170.666C33.0944 170.895 32.8342 171.193 32.6519 171.561C32.4696 171.929 32.3785 172.323 32.3785 172.744V173.42C32.3785 173.997 32.4779 174.486 32.6768 174.887C32.8789 175.285 33.159 175.588 33.517 175.797C33.8749 176.002 34.2909 176.105 34.7648 176.105C35.0731 176.105 35.3515 176.062 35.6001 175.976C35.8519 175.886 36.069 175.754 36.2513 175.578C36.4336 175.399 36.5745 175.177 36.6739 174.912L37.8074 175.23C37.6881 175.615 37.4876 175.953 37.2059 176.244C36.9242 176.533 36.5761 176.758 36.1618 176.92C35.7475 177.08 35.2819 177.159 34.7648 177.159ZM43.6491 177V169.364H44.8224V177H43.6491ZM44.2456 168.091C44.017 168.091 43.8198 168.013 43.654 167.857C43.4916 167.701 43.4104 167.514 43.4104 167.295C43.4104 167.077 43.4916 166.889 43.654 166.734C43.8198 166.578 44.017 166.5 44.2456 166.5C44.4743 166.5 44.6699 166.578 44.8323 166.734C44.998 166.889 45.0809 167.077 45.0809 167.295C45.0809 167.514 44.998 167.701 44.8323 167.857C44.6699 168.013 44.4743 168.091 44.2456 168.091ZM52.3804 171.074L51.3264 171.372C51.2602 171.196 51.1624 171.026 51.0331 170.86C50.9072 170.691 50.7348 170.552 50.5161 170.442C50.2973 170.333 50.0173 170.278 49.6759 170.278C49.2085 170.278 48.8191 170.386 48.5075 170.602C48.1993 170.814 48.0452 171.084 48.0452 171.412C48.0452 171.704 48.1512 171.934 48.3634 172.103C48.5755 172.272 48.9069 172.413 49.3577 172.526L50.4912 172.804C51.174 172.97 51.6827 173.223 52.0175 173.565C52.3522 173.903 52.5196 174.339 52.5196 174.872C52.5196 175.31 52.3937 175.701 52.1418 176.045C51.8932 176.39 51.5452 176.662 51.0977 176.861C50.6503 177.06 50.1299 177.159 49.5367 177.159C48.7578 177.159 48.1131 176.99 47.6027 176.652C47.0923 176.314 46.7691 175.82 46.6333 175.17L47.7469 174.892C47.853 175.303 48.0535 175.611 48.3485 175.817C48.6468 176.022 49.0362 176.125 49.5168 176.125C50.0637 176.125 50.4978 176.009 50.8193 175.777C51.1441 175.542 51.3066 175.26 51.3066 174.932C51.3066 174.667 51.2137 174.445 51.0281 174.266C50.8425 174.083 50.5575 173.947 50.173 173.858L48.9003 173.56C48.201 173.394 47.6872 173.137 47.3591 172.789C47.0343 172.438 46.8719 171.999 46.8719 171.472C46.8719 171.041 46.9929 170.66 47.2348 170.328C47.4801 169.997 47.8132 169.737 48.2341 169.548C48.6584 169.359 49.1389 169.264 49.6759 169.264C50.4316 169.264 51.0248 169.43 51.4557 169.761C51.8899 170.093 52.1981 170.53 52.3804 171.074ZM61.3256 177.159C60.6096 177.159 59.9932 176.99 59.4761 176.652C58.9591 176.314 58.5613 175.848 58.2829 175.255C58.0045 174.662 57.8653 173.984 57.8653 173.222C57.8653 172.446 58.0078 171.762 58.2929 171.168C58.5812 170.572 58.9823 170.106 59.496 169.771C60.0131 169.433 60.6163 169.264 61.3057 169.264C61.8426 169.264 62.3265 169.364 62.7574 169.562C63.1882 169.761 63.5412 170.04 63.8163 170.398C64.0914 170.756 64.2621 171.173 64.3284 171.651H63.1551C63.0656 171.303 62.8667 170.994 62.5585 170.726C62.2536 170.454 61.8426 170.318 61.3256 170.318C60.8682 170.318 60.4671 170.437 60.1224 170.676C59.781 170.911 59.5142 171.245 59.322 171.675C59.1331 172.103 59.0386 172.605 59.0386 173.182C59.0386 173.772 59.1314 174.286 59.317 174.723C59.5059 175.161 59.7711 175.5 60.1125 175.742C60.4572 175.984 60.8615 176.105 61.3256 176.105C61.6305 176.105 61.9072 176.052 62.1558 175.946C62.4044 175.84 62.6148 175.688 62.7872 175.489C62.9595 175.29 63.0822 175.051 63.1551 174.773H64.3284C64.2621 175.223 64.098 175.629 63.8362 175.991C63.5777 176.349 63.2346 176.634 62.8071 176.846C62.3828 177.055 61.889 177.159 61.3256 177.159ZM70.8561 173.878V169.364H72.0294V177H70.8561V175.707H70.7765C70.5976 176.095 70.3192 176.425 69.9413 176.697C69.5635 176.965 69.0862 177.099 68.5095 177.099C68.0322 177.099 67.608 176.995 67.2368 176.786C66.8656 176.574 66.5739 176.256 66.3618 175.832C66.1497 175.404 66.0436 174.866 66.0436 174.216V169.364H67.2169V174.136C67.2169 174.693 67.3727 175.137 67.6842 175.469C67.9991 175.8 68.4001 175.966 68.8873 175.966C69.179 175.966 69.4756 175.891 69.7773 175.742C70.0822 175.593 70.3374 175.364 70.5429 175.056C70.7517 174.748 70.8561 174.355 70.8561 173.878ZM74.1784 177V169.364H75.3119V170.517H75.3914C75.5306 170.139 75.7825 169.833 76.1471 169.597C76.5117 169.362 76.9227 169.244 77.3801 169.244C77.4662 169.244 77.574 169.246 77.7032 169.249C77.8325 169.253 77.9303 169.258 77.9965 169.264V170.457C77.9568 170.447 77.8656 170.433 77.7231 170.413C77.5839 170.389 77.4364 170.378 77.2806 170.378C76.9094 170.378 76.578 170.456 76.2863 170.612C75.998 170.764 75.7693 170.976 75.6002 171.248C75.4345 171.516 75.3517 171.823 75.3517 172.168V177H74.1784ZM79.3873 177V169.364H80.5209V170.517H80.6004C80.7396 170.139 80.9915 169.833 81.3561 169.597C81.7207 169.362 82.1317 169.244 82.589 169.244C82.6752 169.244 82.7829 169.246 82.9122 169.249C83.0415 169.253 83.1392 169.258 83.2055 169.264V170.457C83.1657 170.447 83.0746 170.433 82.9321 170.413C82.7929 170.389 82.6454 170.378 82.4896 170.378C82.1184 170.378 81.787 170.456 81.4953 170.612C81.2069 170.764 80.9782 170.976 80.8092 171.248C80.6435 171.516 80.5606 171.823 80.5606 172.168V177H79.3873ZM87.5656 177.159C86.8298 177.159 86.1951 176.997 85.6615 176.672C85.1312 176.344 84.7219 175.886 84.4335 175.3C84.1485 174.71 84.0059 174.024 84.0059 173.241C84.0059 172.459 84.1485 171.77 84.4335 171.173C84.7219 170.573 85.1229 170.106 85.6366 169.771C86.1537 169.433 86.7569 169.264 87.4463 169.264C87.844 169.264 88.2368 169.33 88.6246 169.463C89.0123 169.596 89.3653 169.811 89.6835 170.109C90.0017 170.404 90.2552 170.795 90.4442 171.283C90.6331 171.77 90.7275 172.37 90.7275 173.082V173.58H84.8412V172.565H89.5344C89.5344 172.134 89.4482 171.75 89.2758 171.412C89.1068 171.074 88.8648 170.807 88.55 170.612C88.2384 170.416 87.8705 170.318 87.4463 170.318C86.979 170.318 86.5746 170.434 86.2332 170.666C85.8952 170.895 85.635 171.193 85.4527 171.561C85.2704 171.929 85.1792 172.323 85.1792 172.744V173.42C85.1792 173.997 85.2787 174.486 85.4775 174.887C85.6797 175.285 85.9598 175.588 86.3177 175.797C86.6757 176.002 87.0916 176.105 87.5656 176.105C87.8738 176.105 88.1523 176.062 88.4008 175.976C88.6527 175.886 88.8698 175.754 89.0521 175.578C89.2344 175.399 89.3753 175.177 89.4747 174.912L90.6082 175.23C90.4889 175.615 90.2884 175.953 90.0067 176.244C89.7249 176.533 89.3769 176.758 88.9626 176.92C88.5483 177.08 88.0827 177.159 87.5656 177.159ZM93.6856 172.406V177H92.5123V169.364H93.6459V170.557H93.7453C93.9243 170.169 94.1961 169.857 94.5606 169.622C94.9252 169.384 95.3959 169.264 95.9726 169.264C96.4896 169.264 96.942 169.37 97.3298 169.582C97.7176 169.791 98.0192 170.109 98.2346 170.537C98.4501 170.961 98.5578 171.498 98.5578 172.148V177H97.3845V172.227C97.3845 171.627 97.2287 171.16 96.9172 170.825C96.6056 170.487 96.1781 170.318 95.6345 170.318C95.26 170.318 94.9252 170.399 94.6302 170.562C94.3386 170.724 94.1082 170.961 93.9392 171.273C93.7702 171.584 93.6856 171.962 93.6856 172.406ZM104.023 169.364V170.358H100.065V169.364H104.023ZM101.219 167.534H102.392V174.812C102.392 175.144 102.44 175.393 102.536 175.558C102.636 175.721 102.762 175.83 102.914 175.886C103.07 175.939 103.234 175.966 103.406 175.966C103.536 175.966 103.642 175.959 103.725 175.946C103.807 175.929 103.874 175.916 103.923 175.906L104.162 176.96C104.082 176.99 103.971 177.02 103.829 177.05C103.686 177.083 103.506 177.099 103.287 177.099C102.956 177.099 102.631 177.028 102.313 176.886C101.998 176.743 101.736 176.526 101.527 176.234C101.322 175.943 101.219 175.575 101.219 175.131V167.534ZM107.125 166.818V177H105.952V166.818H107.125ZM110.03 179.864C109.831 179.864 109.654 179.847 109.498 179.814C109.342 179.784 109.234 179.754 109.175 179.724L109.473 178.69C109.758 178.763 110.01 178.79 110.229 178.77C110.447 178.75 110.641 178.652 110.81 178.477C110.983 178.304 111.14 178.024 111.283 177.636L111.501 177.04L108.677 169.364H109.95L112.058 175.449H112.138L114.246 169.364H115.518L112.277 178.114C112.131 178.508 111.95 178.835 111.735 179.093C111.52 179.355 111.269 179.549 110.984 179.675C110.703 179.801 110.384 179.864 110.03 179.864ZM122.178 172.406V177H121.005V169.364H122.138V170.557H122.237C122.416 170.169 122.688 169.857 123.053 169.622C123.417 169.384 123.888 169.264 124.465 169.264C124.982 169.264 125.434 169.37 125.822 169.582C126.21 169.791 126.511 170.109 126.727 170.537C126.942 170.961 127.05 171.498 127.05 172.148V177H125.877V172.227C125.877 171.627 125.721 171.16 125.409 170.825C125.098 170.487 124.67 170.318 124.127 170.318C123.752 170.318 123.417 170.399 123.122 170.562C122.831 170.724 122.6 170.961 122.431 171.273C122.262 171.584 122.178 171.962 122.178 172.406ZM132.296 177.159C131.607 177.159 131.002 176.995 130.482 176.667C129.965 176.339 129.56 175.88 129.269 175.29C128.98 174.7 128.836 174.01 128.836 173.222C128.836 172.426 128.98 171.732 129.269 171.138C129.56 170.545 129.965 170.085 130.482 169.756C131.002 169.428 131.607 169.264 132.296 169.264C132.986 169.264 133.589 169.428 134.106 169.756C134.626 170.085 135.031 170.545 135.319 171.138C135.611 171.732 135.756 172.426 135.756 173.222C135.756 174.01 135.611 174.7 135.319 175.29C135.031 175.88 134.626 176.339 134.106 176.667C133.589 176.995 132.986 177.159 132.296 177.159ZM132.296 176.105C132.82 176.105 133.251 175.971 133.589 175.702C133.927 175.434 134.177 175.081 134.34 174.643C134.502 174.206 134.583 173.732 134.583 173.222C134.583 172.711 134.502 172.236 134.34 171.795C134.177 171.354 133.927 170.998 133.589 170.726C133.251 170.454 132.82 170.318 132.296 170.318C131.773 170.318 131.342 170.454 131.004 170.726C130.666 170.998 130.415 171.354 130.253 171.795C130.091 172.236 130.009 172.711 130.009 173.222C130.009 173.732 130.091 174.206 130.253 174.643C130.415 175.081 130.666 175.434 131.004 175.702C131.342 175.971 131.773 176.105 132.296 176.105ZM144.369 177.159C143.732 177.159 143.17 176.998 142.683 176.677C142.196 176.352 141.815 175.895 141.54 175.305C141.265 174.711 141.127 174.01 141.127 173.202C141.127 172.4 141.265 171.704 141.54 171.114C141.815 170.524 142.198 170.068 142.688 169.746C143.179 169.425 143.745 169.264 144.388 169.264C144.886 169.264 145.278 169.347 145.567 169.513C145.858 169.675 146.08 169.861 146.233 170.07C146.389 170.275 146.51 170.444 146.596 170.577H146.695V166.818H147.869V177H146.735V175.827H146.596C146.51 175.966 146.387 176.142 146.228 176.354C146.069 176.562 145.842 176.75 145.547 176.915C145.252 177.078 144.859 177.159 144.369 177.159ZM144.528 176.105C144.998 176.105 145.396 175.982 145.721 175.737C146.046 175.489 146.293 175.146 146.462 174.708C146.631 174.267 146.715 173.759 146.715 173.182C146.715 172.612 146.632 172.113 146.467 171.685C146.301 171.254 146.056 170.92 145.731 170.681C145.406 170.439 145.005 170.318 144.528 170.318C144.03 170.318 143.616 170.446 143.285 170.701C142.957 170.953 142.71 171.296 142.544 171.73C142.382 172.161 142.3 172.645 142.3 173.182C142.3 173.725 142.383 174.219 142.549 174.663C142.718 175.104 142.967 175.455 143.295 175.717C143.626 175.976 144.037 176.105 144.528 176.105ZM152.427 177.179C151.944 177.179 151.504 177.088 151.11 176.906C150.716 176.72 150.402 176.453 150.17 176.105C149.938 175.754 149.822 175.33 149.822 174.832C149.822 174.395 149.909 174.04 150.081 173.768C150.253 173.493 150.484 173.278 150.772 173.122C151.06 172.966 151.378 172.85 151.726 172.774C152.078 172.695 152.431 172.632 152.785 172.585C153.249 172.526 153.626 172.481 153.914 172.451C154.206 172.418 154.418 172.363 154.55 172.287C154.686 172.211 154.754 172.078 154.754 171.889V171.849C154.754 171.359 154.62 170.978 154.351 170.706C154.086 170.434 153.684 170.298 153.143 170.298C152.583 170.298 152.144 170.421 151.826 170.666C151.508 170.911 151.284 171.173 151.155 171.452L150.041 171.054C150.24 170.59 150.505 170.229 150.837 169.97C151.171 169.708 151.536 169.526 151.93 169.423C152.328 169.317 152.719 169.264 153.104 169.264C153.349 169.264 153.631 169.294 153.949 169.354C154.27 169.41 154.58 169.528 154.878 169.707C155.18 169.886 155.43 170.156 155.629 170.517C155.828 170.878 155.927 171.362 155.927 171.969V177H154.754V175.966H154.695C154.615 176.132 154.482 176.309 154.297 176.498C154.111 176.687 153.864 176.848 153.556 176.98C153.248 177.113 152.872 177.179 152.427 177.179ZM152.606 176.125C153.07 176.125 153.462 176.034 153.78 175.852C154.101 175.669 154.343 175.434 154.506 175.146C154.671 174.857 154.754 174.554 154.754 174.236V173.162C154.704 173.222 154.595 173.276 154.426 173.326C154.26 173.372 154.068 173.414 153.849 173.45C153.634 173.483 153.423 173.513 153.218 173.54C153.016 173.563 152.852 173.583 152.726 173.599C152.421 173.639 152.136 173.704 151.871 173.793C151.609 173.879 151.397 174.01 151.234 174.186C151.075 174.358 150.996 174.594 150.996 174.892C150.996 175.3 151.146 175.608 151.448 175.817C151.753 176.022 152.139 176.125 152.606 176.125ZM161.39 169.364V170.358H157.433V169.364H161.39ZM158.586 167.534H159.759V174.812C159.759 175.144 159.807 175.393 159.903 175.558C160.003 175.721 160.129 175.83 160.281 175.886C160.437 175.939 160.601 175.966 160.774 175.966C160.903 175.966 161.009 175.959 161.092 175.946C161.175 175.929 161.241 175.916 161.291 175.906L161.529 176.96C161.45 176.99 161.339 177.02 161.196 177.05C161.054 177.083 160.873 177.099 160.654 177.099C160.323 177.099 159.998 177.028 159.68 176.886C159.365 176.743 159.103 176.526 158.894 176.234C158.689 175.943 158.586 175.575 158.586 175.131V167.534ZM165.402 177.179C164.918 177.179 164.479 177.088 164.085 176.906C163.69 176.72 163.377 176.453 163.145 176.105C162.913 175.754 162.797 175.33 162.797 174.832C162.797 174.395 162.883 174.04 163.055 173.768C163.228 173.493 163.458 173.278 163.747 173.122C164.035 172.966 164.353 172.85 164.701 172.774C165.052 172.695 165.405 172.632 165.76 172.585C166.224 172.526 166.6 172.481 166.889 172.451C167.18 172.418 167.392 172.363 167.525 172.287C167.661 172.211 167.729 172.078 167.729 171.889V171.849C167.729 171.359 167.595 170.978 167.326 170.706C167.061 170.434 166.658 170.298 166.118 170.298C165.558 170.298 165.119 170.421 164.801 170.666C164.482 170.911 164.259 171.173 164.129 171.452L163.016 171.054C163.215 170.59 163.48 170.229 163.811 169.97C164.146 169.708 164.511 169.526 164.905 169.423C165.303 169.317 165.694 169.264 166.078 169.264C166.323 169.264 166.605 169.294 166.923 169.354C167.245 169.41 167.555 169.528 167.853 169.707C168.155 169.886 168.405 170.156 168.604 170.517C168.803 170.878 168.902 171.362 168.902 171.969V177H167.729V175.966H167.669C167.59 176.132 167.457 176.309 167.271 176.498C167.086 176.687 166.839 176.848 166.531 176.98C166.222 177.113 165.846 177.179 165.402 177.179ZM165.581 176.125C166.045 176.125 166.436 176.034 166.754 175.852C167.076 175.669 167.318 175.434 167.48 175.146C167.646 174.857 167.729 174.554 167.729 174.236V173.162C167.679 173.222 167.57 173.276 167.401 173.326C167.235 173.372 167.043 173.414 166.824 173.45C166.609 173.483 166.398 173.513 166.193 173.54C165.99 173.563 165.826 173.583 165.7 173.599C165.395 173.639 165.11 173.704 164.845 173.793C164.583 173.879 164.371 174.01 164.209 174.186C164.05 174.358 163.97 174.594 163.97 174.892C163.97 175.3 164.121 175.608 164.423 175.817C164.728 176.022 165.114 176.125 165.581 176.125ZM177.228 177.179C176.744 177.179 176.305 177.088 175.911 176.906C175.516 176.72 175.203 176.453 174.971 176.105C174.739 175.754 174.623 175.33 174.623 174.832C174.623 174.395 174.709 174.04 174.882 173.768C175.054 173.493 175.284 173.278 175.573 173.122C175.861 172.966 176.179 172.85 176.527 172.774C176.879 172.695 177.232 172.632 177.586 172.585C178.05 172.526 178.426 172.481 178.715 172.451C179.006 172.418 179.219 172.363 179.351 172.287C179.487 172.211 179.555 172.078 179.555 171.889V171.849C179.555 171.359 179.421 170.978 179.152 170.706C178.887 170.434 178.484 170.298 177.944 170.298C177.384 170.298 176.945 170.421 176.627 170.666C176.309 170.911 176.085 171.173 175.956 171.452L174.842 171.054C175.041 170.59 175.306 170.229 175.637 169.97C175.972 169.708 176.337 169.526 176.731 169.423C177.129 169.317 177.52 169.264 177.904 169.264C178.15 169.264 178.431 169.294 178.75 169.354C179.071 169.41 179.381 169.528 179.679 169.707C179.981 169.886 180.231 170.156 180.43 170.517C180.629 170.878 180.728 171.362 180.728 171.969V177H179.555V175.966H179.495C179.416 176.132 179.283 176.309 179.098 176.498C178.912 176.687 178.665 176.848 178.357 176.98C178.049 177.113 177.672 177.179 177.228 177.179ZM177.407 176.125C177.871 176.125 178.262 176.034 178.581 175.852C178.902 175.669 179.144 175.434 179.306 175.146C179.472 174.857 179.555 174.554 179.555 174.236V173.162C179.505 173.222 179.396 173.276 179.227 173.326C179.061 173.372 178.869 173.414 178.65 173.45C178.435 173.483 178.224 173.513 178.019 173.54C177.817 173.563 177.652 173.583 177.527 173.599C177.222 173.639 176.937 173.704 176.671 173.793C176.41 173.879 176.197 174.01 176.035 174.186C175.876 174.358 175.796 174.594 175.796 174.892C175.796 175.3 175.947 175.608 176.249 175.817C176.554 176.022 176.94 176.125 177.407 176.125ZM188.841 169.364L186.017 177H184.824L182 169.364H183.272L185.38 175.449H185.46L187.568 169.364H188.841ZM192.404 177.179C191.92 177.179 191.481 177.088 191.087 176.906C190.692 176.72 190.379 176.453 190.147 176.105C189.915 175.754 189.799 175.33 189.799 174.832C189.799 174.395 189.885 174.04 190.057 173.768C190.23 173.493 190.46 173.278 190.748 173.122C191.037 172.966 191.355 172.85 191.703 172.774C192.054 172.695 192.407 172.632 192.762 172.585C193.226 172.526 193.602 172.481 193.891 172.451C194.182 172.418 194.394 172.363 194.527 172.287C194.663 172.211 194.731 172.078 194.731 171.889V171.849C194.731 171.359 194.597 170.978 194.328 170.706C194.063 170.434 193.66 170.298 193.12 170.298C192.56 170.298 192.121 170.421 191.802 170.666C191.484 170.911 191.261 171.173 191.131 171.452L190.018 171.054C190.217 170.59 190.482 170.229 190.813 169.97C191.148 169.708 191.512 169.526 191.907 169.423C192.305 169.317 192.696 169.264 193.08 169.264C193.325 169.264 193.607 169.294 193.925 169.354C194.247 169.41 194.557 169.528 194.855 169.707C195.157 169.886 195.407 170.156 195.606 170.517C195.805 170.878 195.904 171.362 195.904 171.969V177H194.731V175.966H194.671C194.592 176.132 194.459 176.309 194.273 176.498C194.088 176.687 193.841 176.848 193.533 176.98C193.224 177.113 192.848 177.179 192.404 177.179ZM192.583 176.125C193.047 176.125 193.438 176.034 193.756 175.852C194.078 175.669 194.32 175.434 194.482 175.146C194.648 174.857 194.731 174.554 194.731 174.236V173.162C194.681 173.222 194.572 173.276 194.403 173.326C194.237 173.372 194.045 173.414 193.826 173.45C193.61 173.483 193.4 173.513 193.195 173.54C192.992 173.563 192.828 173.583 192.702 173.599C192.397 173.639 192.112 173.704 191.847 173.793C191.585 173.879 191.373 174.01 191.211 174.186C191.052 174.358 190.972 174.594 190.972 174.892C190.972 175.3 191.123 175.608 191.425 175.817C191.73 176.022 192.116 176.125 192.583 176.125ZM198.046 177V169.364H199.219V177H198.046ZM198.642 168.091C198.413 168.091 198.216 168.013 198.051 167.857C197.888 167.701 197.807 167.514 197.807 167.295C197.807 167.077 197.888 166.889 198.051 166.734C198.216 166.578 198.413 166.5 198.642 166.5C198.871 166.5 199.066 166.578 199.229 166.734C199.395 166.889 199.477 167.077 199.477 167.295C199.477 167.514 199.395 167.701 199.229 167.857C199.066 168.013 198.871 168.091 198.642 168.091ZM202.541 166.818V177H201.368V166.818H202.541ZM206.937 177.179C206.453 177.179 206.014 177.088 205.62 176.906C205.225 176.72 204.912 176.453 204.68 176.105C204.448 175.754 204.332 175.33 204.332 174.832C204.332 174.395 204.418 174.04 204.591 173.768C204.763 173.493 204.993 173.278 205.282 173.122C205.57 172.966 205.888 172.85 206.236 172.774C206.588 172.695 206.941 172.632 207.295 172.585C207.759 172.526 208.135 172.481 208.424 172.451C208.715 172.418 208.928 172.363 209.06 172.287C209.196 172.211 209.264 172.078 209.264 171.889V171.849C209.264 171.359 209.13 170.978 208.861 170.706C208.596 170.434 208.193 170.298 207.653 170.298C207.093 170.298 206.654 170.421 206.336 170.666C206.017 170.911 205.794 171.173 205.665 171.452L204.551 171.054C204.75 170.59 205.015 170.229 205.346 169.97C205.681 169.708 206.046 169.526 206.44 169.423C206.838 169.317 207.229 169.264 207.613 169.264C207.859 169.264 208.14 169.294 208.459 169.354C208.78 169.41 209.09 169.528 209.388 169.707C209.69 169.886 209.94 170.156 210.139 170.517C210.338 170.878 210.437 171.362 210.437 171.969V177H209.264V175.966H209.204C209.125 176.132 208.992 176.309 208.807 176.498C208.621 176.687 208.374 176.848 208.066 176.98C207.758 177.113 207.381 177.179 206.937 177.179ZM207.116 176.125C207.58 176.125 207.971 176.034 208.29 175.852C208.611 175.669 208.853 175.434 209.015 175.146C209.181 174.857 209.264 174.554 209.264 174.236V173.162C209.214 173.222 209.105 173.276 208.936 173.326C208.77 173.372 208.578 173.414 208.359 173.45C208.144 173.483 207.933 173.513 207.728 173.54C207.526 173.563 207.361 173.583 207.236 173.599C206.931 173.639 206.646 173.704 206.38 173.793C206.119 173.879 205.906 174.01 205.744 174.186C205.585 174.358 205.505 174.594 205.505 174.892C205.505 175.3 205.656 175.608 205.958 175.817C206.263 176.022 206.649 176.125 207.116 176.125ZM212.738 177V166.818H213.911V170.577H214.011C214.097 170.444 214.216 170.275 214.369 170.07C214.524 169.861 214.746 169.675 215.035 169.513C215.326 169.347 215.721 169.264 216.218 169.264C216.861 169.264 217.428 169.425 217.918 169.746C218.409 170.068 218.792 170.524 219.067 171.114C219.342 171.704 219.479 172.4 219.479 173.202C219.479 174.01 219.342 174.711 219.067 175.305C218.792 175.895 218.41 176.352 217.923 176.677C217.436 176.998 216.874 177.159 216.238 177.159C215.747 177.159 215.355 177.078 215.06 176.915C214.765 176.75 214.538 176.562 214.378 176.354C214.219 176.142 214.097 175.966 214.011 175.827H213.871V177H212.738ZM213.891 173.182C213.891 173.759 213.976 174.267 214.145 174.708C214.314 175.146 214.561 175.489 214.886 175.737C215.21 175.982 215.608 176.105 216.079 176.105C216.569 176.105 216.979 175.976 217.307 175.717C217.638 175.455 217.887 175.104 218.052 174.663C218.222 174.219 218.306 173.725 218.306 173.182C218.306 172.645 218.223 172.161 218.057 171.73C217.895 171.296 217.648 170.953 217.317 170.701C216.989 170.446 216.576 170.318 216.079 170.318C215.601 170.318 215.2 170.439 214.876 170.681C214.551 170.92 214.306 171.254 214.14 171.685C213.974 172.113 213.891 172.612 213.891 173.182ZM222.447 166.818V177H221.274V166.818H222.447ZM227.798 177.159C227.062 177.159 226.428 176.997 225.894 176.672C225.364 176.344 224.954 175.886 224.666 175.3C224.381 174.71 224.238 174.024 224.238 173.241C224.238 172.459 224.381 171.77 224.666 171.173C224.954 170.573 225.355 170.106 225.869 169.771C226.386 169.433 226.989 169.264 227.679 169.264C228.076 169.264 228.469 169.33 228.857 169.463C229.245 169.596 229.598 169.811 229.916 170.109C230.234 170.404 230.488 170.795 230.677 171.283C230.866 171.77 230.96 172.37 230.96 173.082V173.58H225.074V172.565H229.767C229.767 172.134 229.681 171.75 229.508 171.412C229.339 171.074 229.097 170.807 228.782 170.612C228.471 170.416 228.103 170.318 227.679 170.318C227.211 170.318 226.807 170.434 226.466 170.666C226.128 170.895 225.867 171.193 225.685 171.561C225.503 171.929 225.412 172.323 225.412 172.744V173.42C225.412 173.997 225.511 174.486 225.71 174.887C225.912 175.285 226.192 175.588 226.55 175.797C226.908 176.002 227.324 176.105 227.798 176.105C228.106 176.105 228.385 176.062 228.633 175.976C228.885 175.886 229.102 175.754 229.285 175.578C229.467 175.399 229.608 175.177 229.707 174.912L230.841 175.23C230.721 175.615 230.521 175.953 230.239 176.244C229.957 176.533 229.609 176.758 229.195 176.92C228.781 177.08 228.315 177.159 227.798 177.159ZM234.495 175.608L234.415 176.145C234.359 176.523 234.273 176.927 234.157 177.358C234.044 177.789 233.926 178.195 233.804 178.576C233.681 178.957 233.58 179.26 233.5 179.486H232.606C232.649 179.274 232.705 178.994 232.775 178.646C232.844 178.298 232.914 177.908 232.983 177.477C233.056 177.05 233.116 176.612 233.162 176.165L233.222 175.608H234.495ZM240.606 179.864V169.364H241.74V170.577H241.879C241.965 170.444 242.084 170.275 242.237 170.07C242.393 169.861 242.615 169.675 242.903 169.513C243.195 169.347 243.589 169.264 244.086 169.264C244.729 169.264 245.296 169.425 245.786 169.746C246.277 170.068 246.66 170.524 246.935 171.114C247.21 171.704 247.348 172.4 247.348 173.202C247.348 174.01 247.21 174.711 246.935 175.305C246.66 175.895 246.279 176.352 245.791 176.677C245.304 176.998 244.742 177.159 244.106 177.159C243.616 177.159 243.223 177.078 242.928 176.915C242.633 176.75 242.406 176.562 242.247 176.354C242.088 176.142 241.965 175.966 241.879 175.827H241.779V179.864H240.606ZM241.759 173.182C241.759 173.759 241.844 174.267 242.013 174.708C242.182 175.146 242.429 175.489 242.754 175.737C243.079 175.982 243.476 176.105 243.947 176.105C244.438 176.105 244.847 175.976 245.175 175.717C245.506 175.455 245.755 175.104 245.921 174.663C246.09 174.219 246.174 173.725 246.174 173.182C246.174 172.645 246.091 172.161 245.926 171.73C245.763 171.296 245.516 170.953 245.185 170.701C244.857 170.446 244.444 170.318 243.947 170.318C243.47 170.318 243.069 170.439 242.744 170.681C242.419 170.92 242.174 171.254 242.008 171.685C241.842 172.113 241.759 172.612 241.759 173.182ZM250.311 166.818V177H249.137V166.818H250.311ZM255.661 177.159C254.926 177.159 254.291 176.997 253.757 176.672C253.227 176.344 252.818 175.886 252.529 175.3C252.244 174.71 252.102 174.024 252.102 173.241C252.102 172.459 252.244 171.77 252.529 171.173C252.818 170.573 253.219 170.106 253.732 169.771C254.249 169.433 254.853 169.264 255.542 169.264C255.94 169.264 256.332 169.33 256.72 169.463C257.108 169.596 257.461 169.811 257.779 170.109C258.097 170.404 258.351 170.795 258.54 171.283C258.729 171.77 258.823 172.37 258.823 173.082V173.58H252.937V172.565H257.63C257.63 172.134 257.544 171.75 257.372 171.412C257.203 171.074 256.961 170.807 256.646 170.612C256.334 170.416 255.966 170.318 255.542 170.318C255.075 170.318 254.67 170.434 254.329 170.666C253.991 170.895 253.731 171.193 253.548 171.561C253.366 171.929 253.275 172.323 253.275 172.744V173.42C253.275 173.997 253.374 174.486 253.573 174.887C253.775 175.285 254.055 175.588 254.413 175.797C254.771 176.002 255.187 176.105 255.661 176.105C255.97 176.105 256.248 176.062 256.497 175.976C256.748 175.886 256.966 175.754 257.148 175.578C257.33 175.399 257.471 175.177 257.57 174.912L258.704 175.23C258.585 175.615 258.384 175.953 258.102 176.244C257.821 176.533 257.473 176.758 257.058 176.92C256.644 177.08 256.178 177.159 255.661 177.159ZM262.855 177.179C262.371 177.179 261.932 177.088 261.538 176.906C261.143 176.72 260.83 176.453 260.598 176.105C260.366 175.754 260.25 175.33 260.25 174.832C260.25 174.395 260.336 174.04 260.509 173.768C260.681 173.493 260.911 173.278 261.2 173.122C261.488 172.966 261.806 172.85 262.154 172.774C262.506 172.695 262.859 172.632 263.213 172.585C263.677 172.526 264.053 172.481 264.342 172.451C264.633 172.418 264.845 172.363 264.978 172.287C265.114 172.211 265.182 172.078 265.182 171.889V171.849C265.182 171.359 265.048 170.978 264.779 170.706C264.514 170.434 264.111 170.298 263.571 170.298C263.011 170.298 262.572 170.421 262.254 170.666C261.935 170.911 261.712 171.173 261.582 171.452L260.469 171.054C260.668 170.59 260.933 170.229 261.264 169.97C261.599 169.708 261.964 169.526 262.358 169.423C262.756 169.317 263.147 169.264 263.531 169.264C263.777 169.264 264.058 169.294 264.377 169.354C264.698 169.41 265.008 169.528 265.306 169.707C265.608 169.886 265.858 170.156 266.057 170.517C266.256 170.878 266.355 171.362 266.355 171.969V177H265.182V175.966H265.122C265.043 176.132 264.91 176.309 264.725 176.498C264.539 176.687 264.292 176.848 263.984 176.98C263.676 177.113 263.299 177.179 262.855 177.179ZM263.034 176.125C263.498 176.125 263.889 176.034 264.207 175.852C264.529 175.669 264.771 175.434 264.933 175.146C265.099 174.857 265.182 174.554 265.182 174.236V173.162C265.132 173.222 265.023 173.276 264.854 173.326C264.688 173.372 264.496 173.414 264.277 173.45C264.062 173.483 263.851 173.513 263.646 173.54C263.444 173.563 263.279 173.583 263.153 173.599C262.849 173.639 262.564 173.704 262.298 173.793C262.037 173.879 261.824 174.01 261.662 174.186C261.503 174.358 261.423 174.594 261.423 174.892C261.423 175.3 261.574 175.608 261.876 175.817C262.181 176.022 262.567 176.125 263.034 176.125ZM273.906 171.074L272.852 171.372C272.786 171.196 272.688 171.026 272.559 170.86C272.433 170.691 272.26 170.552 272.041 170.442C271.823 170.333 271.543 170.278 271.201 170.278C270.734 170.278 270.344 170.386 270.033 170.602C269.725 170.814 269.571 171.084 269.571 171.412C269.571 171.704 269.677 171.934 269.889 172.103C270.101 172.272 270.432 172.413 270.883 172.526L272.017 172.804C272.699 172.97 273.208 173.223 273.543 173.565C273.878 173.903 274.045 174.339 274.045 174.872C274.045 175.31 273.919 175.701 273.667 176.045C273.419 176.39 273.071 176.662 272.623 176.861C272.176 177.06 271.655 177.159 271.062 177.159C270.283 177.159 269.639 176.99 269.128 176.652C268.618 176.314 268.295 175.82 268.159 175.17L269.272 174.892C269.378 175.303 269.579 175.611 269.874 175.817C270.172 176.022 270.562 176.125 271.042 176.125C271.589 176.125 272.023 176.009 272.345 175.777C272.67 175.542 272.832 175.26 272.832 174.932C272.832 174.667 272.739 174.445 272.554 174.266C272.368 174.083 272.083 173.947 271.698 173.858L270.426 173.56C269.726 173.394 269.213 173.137 268.884 172.789C268.56 172.438 268.397 171.999 268.397 171.472C268.397 171.041 268.518 170.66 268.76 170.328C269.005 169.997 269.339 169.737 269.759 169.548C270.184 169.359 270.664 169.264 271.201 169.264C271.957 169.264 272.55 169.43 272.981 169.761C273.415 170.093 273.724 170.53 273.906 171.074ZM279.013 177.159C278.277 177.159 277.642 176.997 277.109 176.672C276.578 176.344 276.169 175.886 275.881 175.3C275.596 174.71 275.453 174.024 275.453 173.241C275.453 172.459 275.596 171.77 275.881 171.173C276.169 170.573 276.57 170.106 277.084 169.771C277.601 169.433 278.204 169.264 278.894 169.264C279.291 169.264 279.684 169.33 280.072 169.463C280.46 169.596 280.813 169.811 281.131 170.109C281.449 170.404 281.703 170.795 281.891 171.283C282.08 171.77 282.175 172.37 282.175 173.082V173.58H276.288V172.565H280.982C280.982 172.134 280.895 171.75 280.723 171.412C280.554 171.074 280.312 170.807 279.997 170.612C279.686 170.416 279.318 170.318 278.894 170.318C278.426 170.318 278.022 170.434 277.68 170.666C277.342 170.895 277.082 171.193 276.9 171.561C276.718 171.929 276.627 172.323 276.627 172.744V173.42C276.627 173.997 276.726 174.486 276.925 174.887C277.127 175.285 277.407 175.588 277.765 175.797C278.123 176.002 278.539 176.105 279.013 176.105C279.321 176.105 279.6 176.062 279.848 175.976C280.1 175.886 280.317 175.754 280.499 175.578C280.682 175.399 280.823 175.177 280.922 174.912L282.055 175.23C281.936 175.615 281.736 175.953 281.454 176.244C281.172 176.533 280.824 176.758 280.41 176.92C279.996 177.08 279.53 177.159 279.013 177.159ZM290.999 177.159C290.283 177.159 289.667 176.99 289.15 176.652C288.633 176.314 288.235 175.848 287.957 175.255C287.678 174.662 287.539 173.984 287.539 173.222C287.539 172.446 287.682 171.762 287.967 171.168C288.255 170.572 288.656 170.106 289.17 169.771C289.687 169.433 290.29 169.264 290.979 169.264C291.516 169.264 292 169.364 292.431 169.562C292.862 169.761 293.215 170.04 293.49 170.398C293.765 170.756 293.936 171.173 294.002 171.651H292.829C292.739 171.303 292.541 170.994 292.232 170.726C291.927 170.454 291.516 170.318 290.999 170.318C290.542 170.318 290.141 170.437 289.796 170.676C289.455 170.911 289.188 171.245 288.996 171.675C288.807 172.103 288.712 172.605 288.712 173.182C288.712 173.772 288.805 174.286 288.991 174.723C289.18 175.161 289.445 175.5 289.786 175.742C290.131 175.984 290.535 176.105 290.999 176.105C291.304 176.105 291.581 176.052 291.83 175.946C292.078 175.84 292.289 175.688 292.461 175.489C292.633 175.29 292.756 175.051 292.829 174.773H294.002C293.936 175.223 293.772 175.629 293.51 175.991C293.252 176.349 292.908 176.634 292.481 176.846C292.057 177.055 291.563 177.159 290.999 177.159ZM295.717 177V169.364H296.851V170.517H296.93C297.07 170.139 297.322 169.833 297.686 169.597C298.051 169.362 298.462 169.244 298.919 169.244C299.005 169.244 299.113 169.246 299.242 169.249C299.372 169.253 299.469 169.258 299.536 169.264V170.457C299.496 170.447 299.405 170.433 299.262 170.413C299.123 170.389 298.975 170.378 298.82 170.378C298.448 170.378 298.117 170.456 297.825 170.612C297.537 170.764 297.308 170.976 297.139 171.248C296.974 171.516 296.891 171.823 296.891 172.168V177H295.717ZM303.896 177.159C303.16 177.159 302.525 176.997 301.992 176.672C301.461 176.344 301.052 175.886 300.764 175.3C300.479 174.71 300.336 174.024 300.336 173.241C300.336 172.459 300.479 171.77 300.764 171.173C301.052 170.573 301.453 170.106 301.967 169.771C302.484 169.433 303.087 169.264 303.776 169.264C304.174 169.264 304.567 169.33 304.955 169.463C305.342 169.596 305.695 169.811 306.014 170.109C306.332 170.404 306.585 170.795 306.774 171.283C306.963 171.77 307.058 172.37 307.058 173.082V173.58H301.171V172.565H305.864C305.864 172.134 305.778 171.75 305.606 171.412C305.437 171.074 305.195 170.807 304.88 170.612C304.569 170.416 304.201 170.318 303.776 170.318C303.309 170.318 302.905 170.434 302.563 170.666C302.225 170.895 301.965 171.193 301.783 171.561C301.6 171.929 301.509 172.323 301.509 172.744V173.42C301.509 173.997 301.609 174.486 301.808 174.887C302.01 175.285 302.29 175.588 302.648 175.797C303.006 176.002 303.422 176.105 303.896 176.105C304.204 176.105 304.482 176.062 304.731 175.976C304.983 175.886 305.2 175.754 305.382 175.578C305.564 175.399 305.705 175.177 305.805 174.912L306.938 175.23C306.819 175.615 306.618 175.953 306.337 176.244C306.055 176.533 305.707 176.758 305.293 176.92C304.878 177.08 304.413 177.159 303.896 177.159ZM311.09 177.179C310.606 177.179 310.167 177.088 309.772 176.906C309.378 176.72 309.064 176.453 308.832 176.105C308.6 175.754 308.484 175.33 308.484 174.832C308.484 174.395 308.571 174.04 308.743 173.768C308.915 173.493 309.146 173.278 309.434 173.122C309.722 172.966 310.041 172.85 310.389 172.774C310.74 172.695 311.093 172.632 311.448 172.585C311.912 172.526 312.288 172.481 312.576 172.451C312.868 172.418 313.08 172.363 313.212 172.287C313.348 172.211 313.416 172.078 313.416 171.889V171.849C313.416 171.359 313.282 170.978 313.014 170.706C312.748 170.434 312.346 170.298 311.805 170.298C311.245 170.298 310.806 170.421 310.488 170.666C310.17 170.911 309.946 171.173 309.817 171.452L308.703 171.054C308.902 170.59 309.167 170.229 309.499 169.97C309.833 169.708 310.198 169.526 310.592 169.423C310.99 169.317 311.381 169.264 311.766 169.264C312.011 169.264 312.293 169.294 312.611 169.354C312.932 169.41 313.242 169.528 313.541 169.707C313.842 169.886 314.092 170.156 314.291 170.517C314.49 170.878 314.59 171.362 314.59 171.969V177H313.416V175.966H313.357C313.277 176.132 313.145 176.309 312.959 176.498C312.773 176.687 312.526 176.848 312.218 176.98C311.91 177.113 311.534 177.179 311.09 177.179ZM311.269 176.125C311.733 176.125 312.124 176.034 312.442 175.852C312.763 175.669 313.005 175.434 313.168 175.146C313.333 174.857 313.416 174.554 313.416 174.236V173.162C313.367 173.222 313.257 173.276 313.088 173.326C312.922 173.372 312.73 173.414 312.511 173.45C312.296 173.483 312.086 173.513 311.88 173.54C311.678 173.563 311.514 173.583 311.388 173.599C311.083 173.639 310.798 173.704 310.533 173.793C310.271 173.879 310.059 174.01 309.896 174.186C309.737 174.358 309.658 174.594 309.658 174.892C309.658 175.3 309.809 175.608 310.11 175.817C310.415 176.022 310.801 176.125 311.269 176.125ZM320.052 169.364V170.358H316.095V169.364H320.052ZM317.248 167.534H318.421V174.812C318.421 175.144 318.469 175.393 318.566 175.558C318.665 175.721 318.791 175.83 318.943 175.886C319.099 175.939 319.263 175.966 319.436 175.966C319.565 175.966 319.671 175.959 319.754 175.946C319.837 175.929 319.903 175.916 319.953 175.906L320.191 176.96C320.112 176.99 320.001 177.02 319.858 177.05C319.716 177.083 319.535 177.099 319.316 177.099C318.985 177.099 318.66 177.028 318.342 176.886C318.027 176.743 317.765 176.526 317.556 176.234C317.351 175.943 317.248 175.575 317.248 175.131V167.534ZM324.937 177.159C324.201 177.159 323.566 176.997 323.033 176.672C322.502 176.344 322.093 175.886 321.805 175.3C321.52 174.71 321.377 174.024 321.377 173.241C321.377 172.459 321.52 171.77 321.805 171.173C322.093 170.573 322.494 170.106 323.008 169.771C323.525 169.433 324.128 169.264 324.817 169.264C325.215 169.264 325.608 169.33 325.996 169.463C326.383 169.596 326.736 169.811 327.055 170.109C327.373 170.404 327.626 170.795 327.815 171.283C328.004 171.77 328.099 172.37 328.099 173.082V173.58H322.212V172.565H326.905C326.905 172.134 326.819 171.75 326.647 171.412C326.478 171.074 326.236 170.807 325.921 170.612C325.61 170.416 325.242 170.318 324.817 170.318C324.35 170.318 323.946 170.434 323.604 170.666C323.266 170.895 323.006 171.193 322.824 171.561C322.641 171.929 322.55 172.323 322.55 172.744V173.42C322.55 173.997 322.65 174.486 322.849 174.887C323.051 175.285 323.331 175.588 323.689 175.797C324.047 176.002 324.463 176.105 324.937 176.105C325.245 176.105 325.523 176.062 325.772 175.976C326.024 175.886 326.241 175.754 326.423 175.578C326.605 175.399 326.746 175.177 326.846 174.912L327.979 175.23C327.86 175.615 327.659 175.953 327.378 176.244C327.096 176.533 326.748 176.758 326.334 176.92C325.919 177.08 325.454 177.159 324.937 177.159ZM333.821 177V169.364H334.954V170.557H335.054C335.213 170.149 335.47 169.833 335.824 169.607C336.179 169.379 336.605 169.264 337.102 169.264C337.606 169.264 338.025 169.379 338.36 169.607C338.698 169.833 338.962 170.149 339.15 170.557H339.23C339.426 170.162 339.719 169.849 340.11 169.617C340.501 169.382 340.97 169.264 341.517 169.264C342.2 169.264 342.758 169.478 343.192 169.906C343.627 170.33 343.844 170.991 343.844 171.889V177H342.67V171.889C342.67 171.326 342.516 170.923 342.208 170.681C341.9 170.439 341.537 170.318 341.119 170.318C340.582 170.318 340.166 170.481 339.871 170.805C339.576 171.127 339.429 171.535 339.429 172.028V177H338.236V171.77C338.236 171.336 338.095 170.986 337.813 170.721C337.531 170.452 337.168 170.318 336.724 170.318C336.419 170.318 336.134 170.399 335.869 170.562C335.607 170.724 335.395 170.95 335.233 171.238C335.074 171.523 334.994 171.853 334.994 172.227V177H333.821ZM349.091 177.159C348.402 177.159 347.797 176.995 347.277 176.667C346.759 176.339 346.355 175.88 346.063 175.29C345.775 174.7 345.631 174.01 345.631 173.222C345.631 172.426 345.775 171.732 346.063 171.138C346.355 170.545 346.759 170.085 347.277 169.756C347.797 169.428 348.402 169.264 349.091 169.264C349.781 169.264 350.384 169.428 350.901 169.756C351.421 170.085 351.826 170.545 352.114 171.138C352.406 171.732 352.551 172.426 352.551 173.222C352.551 174.01 352.406 174.7 352.114 175.29C351.826 175.88 351.421 176.339 350.901 176.667C350.384 176.995 349.781 177.159 349.091 177.159ZM349.091 176.105C349.615 176.105 350.046 175.971 350.384 175.702C350.722 175.434 350.972 175.081 351.134 174.643C351.297 174.206 351.378 173.732 351.378 173.222C351.378 172.711 351.297 172.236 351.134 171.795C350.972 171.354 350.722 170.998 350.384 170.726C350.046 170.454 349.615 170.318 349.091 170.318C348.568 170.318 348.137 170.454 347.799 170.726C347.46 170.998 347.21 171.354 347.048 171.795C346.885 172.236 346.804 172.711 346.804 173.222C346.804 173.732 346.885 174.206 347.048 174.643C347.21 175.081 347.46 175.434 347.799 175.702C348.137 175.971 348.568 176.105 349.091 176.105ZM354.342 177V169.364H355.476V170.517H355.555C355.695 170.139 355.947 169.833 356.311 169.597C356.676 169.362 357.087 169.244 357.544 169.244C357.63 169.244 357.738 169.246 357.867 169.249C357.997 169.253 358.094 169.258 358.161 169.264V170.457C358.121 170.447 358.03 170.433 357.887 170.413C357.748 170.389 357.6 170.378 357.445 170.378C357.073 170.378 356.742 170.456 356.45 170.612C356.162 170.764 355.933 170.976 355.764 171.248C355.599 171.516 355.516 171.823 355.516 172.168V177H354.342ZM362.521 177.159C361.785 177.159 361.15 176.997 360.617 176.672C360.086 176.344 359.677 175.886 359.389 175.3C359.104 174.71 358.961 174.024 358.961 173.241C358.961 172.459 359.104 171.77 359.389 171.173C359.677 170.573 360.078 170.106 360.592 169.771C361.109 169.433 361.712 169.264 362.401 169.264C362.799 169.264 363.192 169.33 363.58 169.463C363.967 169.596 364.32 169.811 364.639 170.109C364.957 170.404 365.21 170.795 365.399 171.283C365.588 171.77 365.683 172.37 365.683 173.082V173.58H359.796V172.565H364.489C364.489 172.134 364.403 171.75 364.231 171.412C364.062 171.074 363.82 170.807 363.505 170.612C363.194 170.416 362.826 170.318 362.401 170.318C361.934 170.318 361.53 170.434 361.188 170.666C360.85 170.895 360.59 171.193 360.408 171.561C360.225 171.929 360.134 172.323 360.134 172.744V173.42C360.134 173.997 360.234 174.486 360.433 174.887C360.635 175.285 360.915 175.588 361.273 175.797C361.631 176.002 362.047 176.105 362.521 176.105C362.829 176.105 363.107 176.062 363.356 175.976C363.608 175.886 363.825 175.754 364.007 175.578C364.189 175.399 364.33 175.177 364.43 174.912L365.563 175.23C365.444 175.615 365.243 175.953 364.962 176.244C364.68 176.533 364.332 176.758 363.918 176.92C363.503 177.08 363.038 177.159 362.521 177.159ZM374.288 177.159C373.652 177.159 373.09 176.998 372.603 176.677C372.116 176.352 371.735 175.895 371.46 175.305C371.185 174.711 371.047 174.01 371.047 173.202C371.047 172.4 371.185 171.704 371.46 171.114C371.735 170.524 372.118 170.068 372.608 169.746C373.099 169.425 373.665 169.264 374.308 169.264C374.805 169.264 375.198 169.347 375.487 169.513C375.778 169.675 376 169.861 376.153 170.07C376.309 170.275 376.43 170.444 376.516 170.577H376.615V166.818H377.788V177H376.655V175.827H376.516C376.43 175.966 376.307 176.142 376.148 176.354C375.989 176.562 375.762 176.75 375.467 176.915C375.172 177.078 374.779 177.159 374.288 177.159ZM374.448 176.105C374.918 176.105 375.316 175.982 375.641 175.737C375.966 175.489 376.212 175.146 376.381 174.708C376.551 174.267 376.635 173.759 376.635 173.182C376.635 172.612 376.552 172.113 376.386 171.685C376.221 171.254 375.975 170.92 375.651 170.681C375.326 170.439 374.925 170.318 374.448 170.318C373.95 170.318 373.536 170.446 373.205 170.701C372.877 170.953 372.63 171.296 372.464 171.73C372.301 172.161 372.22 172.645 372.22 173.182C372.22 173.725 372.303 174.219 372.469 174.663C372.638 175.104 372.886 175.455 373.215 175.717C373.546 175.976 373.957 176.105 374.448 176.105ZM382.347 177.179C381.863 177.179 381.424 177.088 381.03 176.906C380.636 176.72 380.322 176.453 380.09 176.105C379.858 175.754 379.742 175.33 379.742 174.832C379.742 174.395 379.828 174.04 380.001 173.768C380.173 173.493 380.403 173.278 380.692 173.122C380.98 172.966 381.298 172.85 381.646 172.774C381.998 172.695 382.351 172.632 382.705 172.585C383.169 172.526 383.546 172.481 383.834 172.451C384.126 172.418 384.338 172.363 384.47 172.287C384.606 172.211 384.674 172.078 384.674 171.889V171.849C384.674 171.359 384.54 170.978 384.271 170.706C384.006 170.434 383.604 170.298 383.063 170.298C382.503 170.298 382.064 170.421 381.746 170.666C381.428 170.911 381.204 171.173 381.075 171.452L379.961 171.054C380.16 170.59 380.425 170.229 380.756 169.97C381.091 169.708 381.456 169.526 381.85 169.423C382.248 169.317 382.639 169.264 383.024 169.264C383.269 169.264 383.551 169.294 383.869 169.354C384.19 169.41 384.5 169.528 384.798 169.707C385.1 169.886 385.35 170.156 385.549 170.517C385.748 170.878 385.847 171.362 385.847 171.969V177H384.674V175.966H384.614C384.535 176.132 384.402 176.309 384.217 176.498C384.031 176.687 383.784 176.848 383.476 176.98C383.168 177.113 382.792 177.179 382.347 177.179ZM382.526 176.125C382.99 176.125 383.381 176.034 383.7 175.852C384.021 175.669 384.263 175.434 384.426 175.146C384.591 174.857 384.674 174.554 384.674 174.236V173.162C384.624 173.222 384.515 173.276 384.346 173.326C384.18 173.372 383.988 173.414 383.769 173.45C383.554 173.483 383.343 173.513 383.138 173.54C382.936 173.563 382.772 173.583 382.646 173.599C382.341 173.639 382.056 173.704 381.791 173.793C381.529 173.879 381.317 174.01 381.154 174.186C380.995 174.358 380.916 174.594 380.916 174.892C380.916 175.3 381.066 175.608 381.368 175.817C381.673 176.022 382.059 176.125 382.526 176.125ZM391.31 169.364V170.358H387.353V169.364H391.31ZM388.506 167.534H389.679V174.812C389.679 175.144 389.727 175.393 389.823 175.558C389.923 175.721 390.049 175.83 390.201 175.886C390.357 175.939 390.521 175.966 390.693 175.966C390.823 175.966 390.929 175.959 391.012 175.946C391.094 175.929 391.161 175.916 391.21 175.906L391.449 176.96C391.37 176.99 391.259 177.02 391.116 177.05C390.974 177.083 390.793 177.099 390.574 177.099C390.243 177.099 389.918 177.028 389.6 176.886C389.285 176.743 389.023 176.526 388.814 176.234C388.609 175.943 388.506 175.575 388.506 175.131V167.534ZM395.322 177.179C394.838 177.179 394.399 177.088 394.005 176.906C393.61 176.72 393.297 176.453 393.065 176.105C392.833 175.754 392.717 175.33 392.717 174.832C392.717 174.395 392.803 174.04 392.975 173.768C393.148 173.493 393.378 173.278 393.666 173.122C393.955 172.966 394.273 172.85 394.621 172.774C394.972 172.695 395.325 172.632 395.68 172.585C396.144 172.526 396.52 172.481 396.809 172.451C397.1 172.418 397.312 172.363 397.445 172.287C397.581 172.211 397.649 172.078 397.649 171.889V171.849C397.649 171.359 397.514 170.978 397.246 170.706C396.981 170.434 396.578 170.298 396.038 170.298C395.478 170.298 395.039 170.421 394.72 170.666C394.402 170.911 394.179 171.173 394.049 171.452L392.936 171.054C393.134 170.59 393.4 170.229 393.731 169.97C394.066 169.708 394.43 169.526 394.825 169.423C395.223 169.317 395.614 169.264 395.998 169.264C396.243 169.264 396.525 169.294 396.843 169.354C397.165 169.41 397.475 169.528 397.773 169.707C398.075 169.886 398.325 170.156 398.524 170.517C398.723 170.878 398.822 171.362 398.822 171.969V177H397.649V175.966H397.589C397.509 176.132 397.377 176.309 397.191 176.498C397.006 176.687 396.759 176.848 396.451 176.98C396.142 177.113 395.766 177.179 395.322 177.179ZM395.501 176.125C395.965 176.125 396.356 176.034 396.674 175.852C396.996 175.669 397.238 175.434 397.4 175.146C397.566 174.857 397.649 174.554 397.649 174.236V173.162C397.599 173.222 397.49 173.276 397.321 173.326C397.155 173.372 396.963 173.414 396.744 173.45C396.528 173.483 396.318 173.513 396.112 173.54C395.91 173.563 395.746 173.583 395.62 173.599C395.315 173.639 395.03 173.704 394.765 173.793C394.503 173.879 394.291 174.01 394.129 174.186C393.97 174.358 393.89 174.594 393.89 174.892C393.89 175.3 394.041 175.608 394.343 175.817C394.648 176.022 395.034 176.125 395.501 176.125Z" fill="#475467"/>
<defs>
<filter id="filter0_dd_83_22438" x="124" y="16" width="152" height="104" filterUnits="userSpaceOnUse" color-interpolation-filters="sRGB">
<feFlood flood-opacity="0" result="BackgroundImageFix"/>
<feColorMatrix in="SourceAlpha" type="matrix" values="0 0 0 0 0 0 0 0 0 0 0 0 0 0 0 0 0 0 127 0" result="hardAlpha"/>
<feMorphology radius="4" operator="erode" in="SourceAlpha" result="effect1_dropShadow_83_22438"/>
<feOffset dy="8"/>
<feGaussianBlur stdDeviation="4"/>
<feColorMatrix type="matrix" values="0 0 0 0 0.0627451 0 0 0 0 0.0941176 0 0 0 0 0.156863 0 0 0 0.03 0"/>
<feBlend mode="normal" in2="BackgroundImageFix" result="effect1_dropShadow_83_22438"/>
<feColorMatrix in="SourceAlpha" type="matrix" values="0 0 0 0 0 0 0 0 0 0 0 0 0 0 0 0 0 0 127 0" result="hardAlpha"/>
<feMorphology radius="4" operator="erode" in="SourceAlpha" result="effect2_dropShadow_83_22438"/>
<feOffset dy="20"/>
<feGaussianBlur stdDeviation="12"/>
<feColorMatrix type="matrix" values="0 0 0 0 0.0627451 0 0 0 0 0.0941176 0 0 0 0 0.156863 0 0 0 0.08 0"/>
<feBlend mode="normal" in2="effect1_dropShadow_83_22438" result="effect2_dropShadow_83_22438"/>
<feBlend mode="normal" in="SourceGraphic" in2="effect2_dropShadow_83_22438" result="shape"/>
</filter>
<linearGradient id="paint0_linear_83_22438" x1="149.943" y1="37.4858" x2="195.2" y2="80" gradientUnits="userSpaceOnUse">
<stop stop-color="#D0D5DD"/>
<stop offset="0.350715" stop-color="white" stop-opacity="0"/>
</linearGradient>
<linearGradient id="paint1_linear_83_22438" x1="177.029" y1="26.8571" x2="233.6" y2="80" gradientUnits="userSpaceOnUse">
<stop stop-color="#D0D5DD"/>
<stop offset="0.350715" stop-color="white" stop-opacity="0"/>
</linearGradient>
<linearGradient id="paint2_linear_83_22438" x1="216.4" y1="42.8" x2="256" y2="79.9999" gradientUnits="userSpaceOnUse">
<stop stop-color="#D0D5DD"/>
<stop offset="0.350715" stop-color="white" stop-opacity="0"/>
</linearGradient>
</defs>
</svg>
