<svg width="480" height="480" viewBox="0 0 480 480" fill="none" xmlns="http://www.w3.org/2000/svg">
<g clip-path="url(#clip0_102_106)">
<path d="M240 287.5C266.234 287.5 287.5 266.234 287.5 240C287.5 213.766 266.234 192.5 240 192.5C213.766 192.5 192.5 213.766 192.5 240C192.5 266.234 213.766 287.5 240 287.5Z" stroke="#EAECF0"/>
<path d="M240 319.5C283.907 319.5 319.5 283.907 319.5 240C319.5 196.093 283.907 160.5 240 160.5C196.093 160.5 160.5 196.093 160.5 240C160.5 283.907 196.093 319.5 240 319.5Z" stroke="#EAECF0"/>
<path d="M240 351.5C301.58 351.5 351.5 301.58 351.5 240C351.5 178.42 301.58 128.5 240 128.5C178.42 128.5 128.5 178.42 128.5 240C128.5 301.58 178.42 351.5 240 351.5Z" stroke="#EAECF0"/>
<path d="M240 383.5C319.253 383.5 383.5 319.253 383.5 240C383.5 160.747 319.253 96.5 240 96.5C160.747 96.5 96.5 160.747 96.5 240C96.5 319.253 160.747 383.5 240 383.5Z" stroke="#EAECF0"/>
<path d="M240 383.5C319.253 383.5 383.5 319.253 383.5 240C383.5 160.747 319.253 96.5 240 96.5C160.747 96.5 96.5 160.747 96.5 240C96.5 319.253 160.747 383.5 240 383.5Z" stroke="#EAECF0"/>
<path d="M240 415.5C336.926 415.5 415.5 336.926 415.5 240C415.5 143.074 336.926 64.5 240 64.5C143.074 64.5 64.5 143.074 64.5 240C64.5 336.926 143.074 415.5 240 415.5Z" stroke="#EAECF0"/>
<path d="M240 447.5C354.599 447.5 447.5 354.599 447.5 240C447.5 125.401 354.599 32.5 240 32.5C125.401 32.5 32.5 125.401 32.5 240C32.5 354.599 125.401 447.5 240 447.5Z" stroke="#EAECF0"/>
<path d="M240 479.5C372.272 479.5 479.5 372.272 479.5 240C479.5 107.728 372.272 0.5 240 0.5C107.728 0.5 0.5 107.728 0.5 240C0.5 372.272 107.728 479.5 240 479.5Z" stroke="#EAECF0"/>
<path d="M240.214 296C268.932 296 292.214 272.719 292.214 244C292.214 215.281 268.932 192 240.214 192C211.495 192 188.214 215.281 188.214 244C188.214 272.719 211.495 296 240.214 296Z" fill="#EAECF0"/>
<g filter="url(#filter0_dd_102_106)">
<path d="M241.814 208C231.041 208 221.511 213.323 215.712 221.483C213.818 221.036 211.844 220.8 209.814 220.8C195.676 220.8 184.214 232.262 184.214 246.4C184.214 260.539 195.676 272 209.814 272H273.814C286.185 272 296.214 261.971 296.214 249.6C296.214 237.229 286.185 227.2 273.814 227.2C272.935 227.2 272.067 227.251 271.215 227.349C266.312 215.968 254.994 208 241.814 208Z" fill="#F9FAFB"/>
<path d="M209.814 272C223.952 272 235.413 260.538 235.413 246.4C235.413 232.262 223.952 220.8 209.814 220.8C195.675 220.8 184.214 232.262 184.214 246.4C184.214 260.538 195.675 272 209.814 272Z" fill="url(#paint0_linear_102_106)"/>
<path d="M241.814 272C259.487 272 273.814 257.673 273.814 240C273.814 222.327 259.487 208 241.814 208C224.14 208 209.814 222.327 209.814 240C209.814 257.673 224.14 272 241.814 272Z" fill="url(#paint1_linear_102_106)"/>
<path d="M273.814 272C286.185 272 296.214 261.971 296.214 249.6C296.214 237.229 286.185 227.2 273.814 227.2C261.442 227.2 251.413 237.229 251.413 249.6C251.413 261.971 261.442 272 273.814 272Z" fill="url(#paint2_linear_102_106)"/>
</g>
<path d="M185.214 216C187.975 216 190.214 213.761 190.214 211C190.214 208.239 187.975 206 185.214 206C182.452 206 180.214 208.239 180.214 211C180.214 213.761 182.452 216 185.214 216Z" fill="#F2F4F7"/>
<path d="M182.214 308C186.079 308 189.214 304.866 189.214 301C189.214 297.134 186.079 294 182.214 294C178.348 294 175.214 297.134 175.214 301C175.214 304.866 178.348 308 182.214 308Z" fill="#F2F4F7"/>
<path d="M309.214 234C313.079 234 316.214 230.866 316.214 227C316.214 223.134 313.079 220 309.214 220C305.348 220 302.214 223.134 302.214 227C302.214 230.866 305.348 234 309.214 234Z" fill="#F2F4F7"/>
<path d="M298.214 204C300.423 204 302.214 202.209 302.214 200C302.214 197.791 300.423 196 298.214 196C296.004 196 294.214 197.791 294.214 200C294.214 202.209 296.004 204 298.214 204Z" fill="#F2F4F7"/>
<path d="M220.876 332.364V344H219.001L213.518 336.074H213.423V344H211.314V332.364H213.201L218.678 340.295H218.781V332.364H220.876ZM226.889 344.17C226.037 344.17 225.299 343.983 224.674 343.608C224.049 343.233 223.563 342.708 223.219 342.034C222.878 341.36 222.708 340.572 222.708 339.67C222.708 338.769 222.878 337.979 223.219 337.301C223.563 336.623 224.049 336.097 224.674 335.722C225.299 335.347 226.037 335.159 226.889 335.159C227.741 335.159 228.48 335.347 229.105 335.722C229.73 336.097 230.214 336.623 230.555 337.301C230.9 337.979 231.072 338.769 231.072 339.67C231.072 340.572 230.9 341.36 230.555 342.034C230.214 342.708 229.73 343.233 229.105 343.608C228.48 343.983 227.741 344.17 226.889 344.17ZM226.902 342.523C227.364 342.523 227.75 342.396 228.061 342.142C228.371 341.884 228.601 341.54 228.753 341.108C228.908 340.676 228.986 340.195 228.986 339.665C228.986 339.131 228.908 338.648 228.753 338.216C228.601 337.78 228.371 337.434 228.061 337.176C227.75 336.919 227.364 336.79 226.902 336.79C226.428 336.79 226.033 336.919 225.719 337.176C225.408 337.434 225.176 337.78 225.021 338.216C224.869 338.648 224.794 339.131 224.794 339.665C224.794 340.195 224.869 340.676 225.021 341.108C225.176 341.54 225.408 341.884 225.719 342.142C226.033 342.396 226.428 342.523 226.902 342.523ZM240.025 344.153C239.339 344.153 238.726 343.977 238.184 343.625C237.643 343.273 237.214 342.761 236.9 342.091C236.586 341.42 236.428 340.606 236.428 339.648C236.428 338.678 236.588 337.86 236.906 337.193C237.228 336.523 237.66 336.017 238.206 335.676C238.751 335.331 239.36 335.159 240.031 335.159C240.542 335.159 240.963 335.246 241.292 335.42C241.622 335.591 241.883 335.797 242.076 336.04C242.269 336.278 242.419 336.504 242.525 336.716H242.609V332.364H244.673V344H242.65V342.625H242.525C242.419 342.837 242.265 343.062 242.064 343.301C241.863 343.536 241.598 343.737 241.268 343.903C240.939 344.07 240.525 344.153 240.025 344.153ZM240.598 342.466C241.034 342.466 241.405 342.348 241.712 342.114C242.018 341.875 242.252 341.544 242.411 341.119C242.571 340.695 242.65 340.201 242.65 339.636C242.65 339.072 242.571 338.581 242.411 338.165C242.256 337.748 242.024 337.424 241.717 337.193C241.414 336.962 241.041 336.847 240.598 336.847C240.14 336.847 239.758 336.966 239.451 337.205C239.144 337.443 238.913 337.773 238.758 338.193C238.603 338.614 238.525 339.095 238.525 339.636C238.525 340.182 238.603 340.669 238.758 341.097C238.917 341.521 239.149 341.856 239.456 342.102C239.767 342.345 240.147 342.466 240.598 342.466ZM249.376 344.176C248.823 344.176 248.325 344.078 247.882 343.881C247.442 343.68 247.093 343.384 246.835 342.994C246.581 342.604 246.454 342.123 246.454 341.551C246.454 341.059 246.546 340.652 246.728 340.33C246.91 340.008 247.158 339.75 247.473 339.557C247.787 339.364 248.141 339.218 248.535 339.119C248.933 339.017 249.344 338.943 249.768 338.898C250.279 338.845 250.694 338.797 251.012 338.756C251.33 338.71 251.561 338.642 251.704 338.551C251.852 338.456 251.926 338.311 251.926 338.114V338.08C251.926 337.652 251.8 337.32 251.546 337.085C251.293 336.85 250.926 336.733 250.449 336.733C249.945 336.733 249.546 336.843 249.251 337.062C248.959 337.282 248.762 337.542 248.66 337.841L246.74 337.568C246.891 337.038 247.141 336.595 247.49 336.239C247.838 335.879 248.264 335.61 248.768 335.432C249.272 335.25 249.828 335.159 250.438 335.159C250.859 335.159 251.276 335.208 251.693 335.307C252.11 335.405 252.49 335.568 252.835 335.795C253.18 336.019 253.456 336.324 253.665 336.71C253.877 337.097 253.984 337.58 253.984 338.159V344H252.007V342.801H251.938C251.812 343.044 251.637 343.271 251.41 343.483C251.187 343.691 250.903 343.86 250.562 343.989C250.225 344.114 249.83 344.176 249.376 344.176ZM249.91 342.665C250.323 342.665 250.681 342.583 250.984 342.42C251.287 342.254 251.519 342.034 251.682 341.761C251.848 341.489 251.932 341.191 251.932 340.869V339.841C251.867 339.894 251.759 339.943 251.603 339.989C251.452 340.034 251.281 340.074 251.092 340.108C250.902 340.142 250.715 340.172 250.529 340.199C250.344 340.225 250.183 340.248 250.046 340.267C249.74 340.309 249.465 340.377 249.223 340.472C248.98 340.566 248.788 340.699 248.648 340.869C248.508 341.036 248.438 341.252 248.438 341.517C248.438 341.896 248.577 342.182 248.853 342.375C249.13 342.568 249.482 342.665 249.91 342.665ZM260.41 335.273V336.864H255.393V335.273H260.41ZM256.632 333.182H258.688V341.375C258.688 341.652 258.73 341.864 258.812 342.011C258.9 342.155 259.014 342.254 259.154 342.307C259.294 342.36 259.45 342.386 259.62 342.386C259.749 342.386 259.866 342.377 259.973 342.358C260.082 342.339 260.166 342.322 260.223 342.307L260.568 343.915C260.458 343.953 260.302 343.994 260.098 344.04C259.897 344.085 259.651 344.112 259.359 344.119C258.844 344.134 258.38 344.057 257.967 343.886C257.554 343.712 257.226 343.443 256.984 343.08C256.745 342.716 256.628 342.261 256.632 341.716V333.182ZM264.641 344.176C264.088 344.176 263.589 344.078 263.146 343.881C262.707 343.68 262.359 343.384 262.102 342.994C261.848 342.604 261.721 342.123 261.721 341.551C261.721 341.059 261.811 340.652 261.993 340.33C262.175 340.008 262.424 339.75 262.738 339.557C263.053 339.364 263.407 339.218 263.801 339.119C264.198 339.017 264.609 338.943 265.034 338.898C265.545 338.845 265.959 338.797 266.277 338.756C266.595 338.71 266.827 338.642 266.971 338.551C267.119 338.456 267.193 338.311 267.193 338.114V338.08C267.193 337.652 267.066 337.32 266.812 337.085C266.558 336.85 266.193 336.733 265.715 336.733C265.212 336.733 264.811 336.843 264.516 337.062C264.224 337.282 264.028 337.542 263.926 337.841L262.005 337.568C262.157 337.038 262.407 336.595 262.755 336.239C263.104 335.879 263.53 335.61 264.034 335.432C264.537 335.25 265.094 335.159 265.704 335.159C266.125 335.159 266.543 335.208 266.96 335.307C267.376 335.405 267.757 335.568 268.102 335.795C268.446 336.019 268.722 336.324 268.93 336.71C269.142 337.097 269.249 337.58 269.249 338.159V344H267.271V342.801H267.204C267.079 343.044 266.903 343.271 266.676 343.483C266.452 343.691 266.17 343.86 265.829 343.989C265.492 344.114 265.095 344.176 264.641 344.176ZM265.176 342.665C265.589 342.665 265.945 342.583 266.249 342.42C266.552 342.254 266.784 342.034 266.947 341.761C267.114 341.489 267.197 341.191 267.197 340.869V339.841C267.133 339.894 267.023 339.943 266.868 339.989C266.716 340.034 266.547 340.074 266.357 340.108C266.168 340.142 265.98 340.172 265.794 340.199C265.608 340.225 265.448 340.248 265.312 340.267C265.005 340.309 264.731 340.377 264.488 340.472C264.246 340.566 264.053 340.699 263.913 340.869C263.773 341.036 263.704 341.252 263.704 341.517C263.704 341.896 263.841 342.182 264.118 342.375C264.394 342.568 264.748 342.665 265.176 342.665Z" fill="#101828"/>
<path d="M41 359.912V358.818H48.6364V359.912H45.4347V369H44.2017V359.912H41ZM51.5534 364.406V369H50.3801V358.818H51.5534V362.557H51.6529C51.8318 362.162 52.1003 361.849 52.4583 361.617C52.8195 361.382 53.3001 361.264 53.9 361.264C54.4204 361.264 54.8761 361.369 55.2672 361.577C55.6583 361.783 55.9616 362.099 56.177 362.527C56.3958 362.951 56.5051 363.491 56.5051 364.148V369H55.3318V364.227C55.3318 363.621 55.1744 363.152 54.8595 362.82C54.548 362.486 54.1155 362.318 53.562 362.318C53.1775 362.318 52.8328 362.399 52.5279 362.562C52.2263 362.724 51.9876 362.961 51.812 363.273C51.6396 363.584 51.5534 363.962 51.5534 364.406ZM61.8533 369.159C61.1175 369.159 60.4828 368.997 59.9492 368.672C59.4189 368.344 59.0096 367.886 58.7212 367.3C58.4362 366.71 58.2937 366.024 58.2937 365.241C58.2937 364.459 58.4362 363.77 58.7212 363.173C59.0096 362.573 59.4106 362.106 59.9243 361.771C60.4414 361.433 61.0446 361.264 61.734 361.264C62.1317 361.264 62.5245 361.33 62.9123 361.463C63.3001 361.596 63.653 361.811 63.9712 362.109C64.2894 362.404 64.543 362.795 64.7319 363.283C64.9208 363.77 65.0153 364.37 65.0153 365.082V365.58H59.1289V364.565H63.8221C63.8221 364.134 63.7359 363.75 63.5636 363.412C63.3945 363.074 63.1526 362.807 62.8377 362.612C62.5261 362.416 62.1583 362.318 61.734 362.318C61.2667 362.318 60.8623 362.434 60.5209 362.666C60.1829 362.895 59.9227 363.193 59.7404 363.561C59.5581 363.929 59.467 364.323 59.467 364.744V365.42C59.467 365.997 59.5664 366.486 59.7653 366.887C59.9674 367.285 60.2475 367.588 60.6055 367.797C60.9634 368.002 61.3794 368.105 61.8533 368.105C62.1616 368.105 62.44 368.062 62.6886 367.976C62.9404 367.886 63.1575 367.754 63.3398 367.578C63.5221 367.399 63.663 367.177 63.7624 366.912L64.8959 367.23C64.7766 367.615 64.5761 367.953 64.2944 368.244C64.0127 368.533 63.6646 368.758 63.2503 368.92C62.836 369.08 62.3704 369.159 61.8533 369.159ZM66.8001 369V361.364H67.9336V362.517H68.0131C68.1523 362.139 68.4042 361.833 68.7688 361.597C69.1334 361.362 69.5444 361.244 70.0018 361.244C70.0879 361.244 70.1957 361.246 70.3249 361.249C70.4542 361.253 70.552 361.258 70.6182 361.264V362.457C70.5785 362.447 70.4873 362.433 70.3448 362.413C70.2056 362.389 70.0581 362.378 69.9023 362.378C69.5311 362.378 69.1997 362.456 68.908 362.612C68.6197 362.764 68.391 362.976 68.2219 363.248C68.0562 363.516 67.9734 363.823 67.9734 364.168V369H66.8001ZM74.9783 369.159C74.2425 369.159 73.6078 368.997 73.0742 368.672C72.5439 368.344 72.1346 367.886 71.8462 367.3C71.5612 366.71 71.4187 366.024 71.4187 365.241C71.4187 364.459 71.5612 363.77 71.8462 363.173C72.1346 362.573 72.5356 362.106 73.0493 361.771C73.5664 361.433 74.1696 361.264 74.859 361.264C75.2567 361.264 75.6495 361.33 76.0373 361.463C76.4251 361.596 76.778 361.811 77.0962 362.109C77.4144 362.404 77.668 362.795 77.8569 363.283C78.0458 363.77 78.1403 364.37 78.1403 365.082V365.58H72.2539V364.565H76.9471C76.9471 364.134 76.8609 363.75 76.6886 363.412C76.5195 363.074 76.2776 362.807 75.9627 362.612C75.6511 362.416 75.2833 362.318 74.859 362.318C74.3917 362.318 73.9873 362.434 73.6459 362.666C73.3079 362.895 73.0477 363.193 72.8654 363.561C72.6831 363.929 72.592 364.323 72.592 364.744V365.42C72.592 365.997 72.6914 366.486 72.8903 366.887C73.0924 367.285 73.3725 367.588 73.7305 367.797C74.0884 368.002 74.5044 368.105 74.9783 368.105C75.2866 368.105 75.565 368.062 75.8136 367.976C76.0654 367.886 76.2825 367.754 76.4648 367.578C76.6471 367.399 76.788 367.177 76.8874 366.912L78.0209 367.23C77.9016 367.615 77.7011 367.953 77.4194 368.244C77.1377 368.533 76.7896 368.758 76.3753 368.92C75.961 369.08 75.4954 369.159 74.9783 369.159ZM83.8626 369V361.364H85.0359V369H83.8626ZM84.4591 360.091C84.2305 360.091 84.0333 360.013 83.8675 359.857C83.7051 359.701 83.6239 359.514 83.6239 359.295C83.6239 359.077 83.7051 358.889 83.8675 358.734C84.0333 358.578 84.2305 358.5 84.4591 358.5C84.6878 358.5 84.8834 358.578 85.0458 358.734C85.2115 358.889 85.2944 359.077 85.2944 359.295C85.2944 359.514 85.2115 359.701 85.0458 359.857C84.8834 360.013 84.6878 360.091 84.4591 360.091ZM92.5939 363.074L91.5399 363.372C91.4737 363.196 91.3759 363.026 91.2466 362.86C91.1207 362.691 90.9483 362.552 90.7296 362.442C90.5108 362.333 90.2308 362.278 89.8894 362.278C89.422 362.278 89.0326 362.386 88.721 362.602C88.4128 362.814 88.2587 363.084 88.2587 363.412C88.2587 363.704 88.3647 363.934 88.5769 364.103C88.789 364.272 89.1204 364.413 89.5712 364.526L90.7047 364.804C91.3875 364.97 91.8962 365.223 92.231 365.565C92.5657 365.903 92.7331 366.339 92.7331 366.872C92.7331 367.31 92.6072 367.701 92.3553 368.045C92.1067 368.39 91.7587 368.662 91.3112 368.861C90.8638 369.06 90.3434 369.159 89.7502 369.159C88.9713 369.159 88.3266 368.99 87.8162 368.652C87.3058 368.314 86.9826 367.82 86.8468 367.17L87.9604 366.892C88.0665 367.303 88.267 367.611 88.562 367.817C88.8603 368.022 89.2497 368.125 89.7303 368.125C90.2772 368.125 90.7113 368.009 91.0328 367.777C91.3576 367.542 91.5201 367.26 91.5201 366.932C91.5201 366.667 91.4272 366.445 91.2416 366.266C91.056 366.083 90.771 365.947 90.3865 365.858L89.1138 365.56C88.4145 365.394 87.9007 365.137 87.5726 364.789C87.2478 364.438 87.0854 363.999 87.0854 363.472C87.0854 363.041 87.2064 362.66 87.4483 362.328C87.6936 361.997 88.0267 361.737 88.4476 361.548C88.8719 361.359 89.3524 361.264 89.8894 361.264C90.6451 361.264 91.2383 361.43 91.6692 361.761C92.1034 362.093 92.4116 362.53 92.5939 363.074ZM101.539 369.159C100.823 369.159 100.207 368.99 99.6896 368.652C99.1726 368.314 98.7748 367.848 98.4964 367.255C98.218 366.662 98.0788 365.984 98.0788 365.222C98.0788 364.446 98.2213 363.762 98.5064 363.168C98.7947 362.572 99.1958 362.106 99.7095 361.771C100.227 361.433 100.83 361.264 101.519 361.264C102.056 361.264 102.54 361.364 102.971 361.562C103.402 361.761 103.755 362.04 104.03 362.398C104.305 362.756 104.476 363.173 104.542 363.651H103.369C103.279 363.303 103.08 362.994 102.772 362.726C102.467 362.454 102.056 362.318 101.539 362.318C101.082 362.318 100.681 362.437 100.336 362.676C99.9945 362.911 99.7277 363.245 99.5355 363.675C99.3466 364.103 99.2521 364.605 99.2521 365.182C99.2521 365.772 99.3449 366.286 99.5305 366.723C99.7194 367.161 99.9846 367.5 100.326 367.742C100.671 367.984 101.075 368.105 101.539 368.105C101.844 368.105 102.121 368.052 102.369 367.946C102.618 367.84 102.828 367.688 103.001 367.489C103.173 367.29 103.296 367.051 103.369 366.773H104.542C104.476 367.223 104.312 367.629 104.05 367.991C103.791 368.349 103.448 368.634 103.021 368.846C102.596 369.055 102.103 369.159 101.539 369.159ZM111.07 365.878V361.364H112.243V369H111.07V367.707H110.99C110.811 368.095 110.533 368.425 110.155 368.697C109.777 368.965 109.3 369.099 108.723 369.099C108.246 369.099 107.822 368.995 107.45 368.786C107.079 368.574 106.787 368.256 106.575 367.832C106.363 367.404 106.257 366.866 106.257 366.216V361.364H107.43V366.136C107.43 366.693 107.586 367.137 107.898 367.469C108.213 367.8 108.614 367.966 109.101 367.966C109.393 367.966 109.689 367.891 109.991 367.742C110.296 367.593 110.551 367.364 110.756 367.056C110.965 366.748 111.07 366.355 111.07 365.878ZM114.392 369V361.364H115.525V362.517H115.605C115.744 362.139 115.996 361.833 116.361 361.597C116.725 361.362 117.136 361.244 117.594 361.244C117.68 361.244 117.788 361.246 117.917 361.249C118.046 361.253 118.144 361.258 118.21 361.264V362.457C118.17 362.447 118.079 362.433 117.937 362.413C117.797 362.389 117.65 362.378 117.494 362.378C117.123 362.378 116.792 362.456 116.5 362.612C116.212 362.764 115.983 362.976 115.814 363.248C115.648 363.516 115.565 363.823 115.565 364.168V369H114.392ZM119.601 369V361.364H120.734V362.517H120.814C120.953 362.139 121.205 361.833 121.57 361.597C121.934 361.362 122.345 361.244 122.803 361.244C122.889 361.244 122.996 361.246 123.126 361.249C123.255 361.253 123.353 361.258 123.419 361.264V362.457C123.379 362.447 123.288 362.433 123.146 362.413C123.006 362.389 122.859 362.378 122.703 362.378C122.332 362.378 122.001 362.456 121.709 362.612C121.42 362.764 121.192 362.976 121.023 363.248C120.857 363.516 120.774 363.823 120.774 364.168V369H119.601ZM127.779 369.159C127.043 369.159 126.409 368.997 125.875 368.672C125.345 368.344 124.935 367.886 124.647 367.3C124.362 366.71 124.219 366.024 124.219 365.241C124.219 364.459 124.362 363.77 124.647 363.173C124.935 362.573 125.336 362.106 125.85 361.771C126.367 361.433 126.97 361.264 127.66 361.264C128.058 361.264 128.45 361.33 128.838 361.463C129.226 361.596 129.579 361.811 129.897 362.109C130.215 362.404 130.469 362.795 130.658 363.283C130.847 363.77 130.941 364.37 130.941 365.082V365.58H125.055V364.565H129.748C129.748 364.134 129.662 363.75 129.489 363.412C129.32 363.074 129.078 362.807 128.764 362.612C128.452 362.416 128.084 362.318 127.66 362.318C127.193 362.318 126.788 362.434 126.447 362.666C126.109 362.895 125.849 363.193 125.666 363.561C125.484 363.929 125.393 364.323 125.393 364.744V365.42C125.393 365.997 125.492 366.486 125.691 366.887C125.893 367.285 126.173 367.588 126.531 367.797C126.889 368.002 127.305 368.105 127.779 368.105C128.087 368.105 128.366 368.062 128.614 367.976C128.866 367.886 129.083 367.754 129.266 367.578C129.448 367.399 129.589 367.177 129.688 366.912L130.822 367.23C130.702 367.615 130.502 367.953 130.22 368.244C129.938 368.533 129.59 368.758 129.176 368.92C128.762 369.08 128.296 369.159 127.779 369.159ZM133.899 364.406V369H132.726V361.364H133.859V362.557H133.959C134.138 362.169 134.41 361.857 134.774 361.622C135.139 361.384 135.609 361.264 136.186 361.264C136.703 361.264 137.156 361.37 137.543 361.582C137.931 361.791 138.233 362.109 138.448 362.537C138.664 362.961 138.771 363.498 138.771 364.148V369H137.598V364.227C137.598 363.627 137.442 363.16 137.131 362.825C136.819 362.487 136.392 362.318 135.848 362.318C135.474 362.318 135.139 362.399 134.844 362.562C134.552 362.724 134.322 362.961 134.153 363.273C133.984 363.584 133.899 363.962 133.899 364.406ZM144.237 361.364V362.358H140.279V361.364H144.237ZM141.433 359.534H142.606V366.812C142.606 367.144 142.654 367.393 142.75 367.558C142.85 367.721 142.976 367.83 143.128 367.886C143.284 367.939 143.448 367.966 143.62 367.966C143.75 367.966 143.856 367.959 143.939 367.946C144.021 367.929 144.088 367.916 144.137 367.906L144.376 368.96C144.296 368.99 144.185 369.02 144.043 369.05C143.9 369.083 143.72 369.099 143.501 369.099C143.17 369.099 142.845 369.028 142.527 368.886C142.212 368.743 141.95 368.526 141.741 368.234C141.536 367.943 141.433 367.575 141.433 367.131V359.534ZM147.339 358.818V369H146.166V358.818H147.339ZM150.244 371.864C150.045 371.864 149.868 371.847 149.712 371.814C149.556 371.784 149.448 371.754 149.389 371.724L149.687 370.69C149.972 370.763 150.224 370.79 150.443 370.77C150.661 370.75 150.855 370.652 151.024 370.477C151.197 370.304 151.354 370.024 151.497 369.636L151.715 369.04L148.891 361.364H150.164L152.272 367.449H152.352L154.46 361.364H155.732L152.491 370.114C152.345 370.508 152.164 370.835 151.949 371.093C151.734 371.355 151.483 371.549 151.198 371.675C150.917 371.801 150.598 371.864 150.244 371.864ZM162.392 364.406V369H161.219V361.364H162.352V362.557H162.451C162.63 362.169 162.902 361.857 163.267 361.622C163.631 361.384 164.102 361.264 164.679 361.264C165.196 361.264 165.648 361.37 166.036 361.582C166.424 361.791 166.725 362.109 166.941 362.537C167.156 362.961 167.264 363.498 167.264 364.148V369H166.091V364.227C166.091 363.627 165.935 363.16 165.623 362.825C165.312 362.487 164.884 362.318 164.341 362.318C163.966 362.318 163.631 362.399 163.336 362.562C163.045 362.724 162.814 362.961 162.645 363.273C162.476 363.584 162.392 363.962 162.392 364.406ZM172.51 369.159C171.821 369.159 171.216 368.995 170.696 368.667C170.179 368.339 169.774 367.88 169.483 367.29C169.194 366.7 169.05 366.01 169.05 365.222C169.05 364.426 169.194 363.732 169.483 363.138C169.774 362.545 170.179 362.085 170.696 361.756C171.216 361.428 171.821 361.264 172.51 361.264C173.2 361.264 173.803 361.428 174.32 361.756C174.84 362.085 175.245 362.545 175.533 363.138C175.825 363.732 175.97 364.426 175.97 365.222C175.97 366.01 175.825 366.7 175.533 367.29C175.245 367.88 174.84 368.339 174.32 368.667C173.803 368.995 173.2 369.159 172.51 369.159ZM172.51 368.105C173.034 368.105 173.465 367.971 173.803 367.702C174.141 367.434 174.391 367.081 174.554 366.643C174.716 366.206 174.797 365.732 174.797 365.222C174.797 364.711 174.716 364.236 174.554 363.795C174.391 363.354 174.141 362.998 173.803 362.726C173.465 362.454 173.034 362.318 172.51 362.318C171.987 362.318 171.556 362.454 171.218 362.726C170.88 362.998 170.629 363.354 170.467 363.795C170.305 364.236 170.223 364.711 170.223 365.222C170.223 365.732 170.305 366.206 170.467 366.643C170.629 367.081 170.88 367.434 171.218 367.702C171.556 367.971 171.987 368.105 172.51 368.105ZM184.583 369.159C183.946 369.159 183.384 368.998 182.897 368.677C182.41 368.352 182.029 367.895 181.754 367.305C181.479 366.711 181.341 366.01 181.341 365.202C181.341 364.4 181.479 363.704 181.754 363.114C182.029 362.524 182.412 362.068 182.902 361.746C183.393 361.425 183.959 361.264 184.602 361.264C185.1 361.264 185.492 361.347 185.781 361.513C186.072 361.675 186.294 361.861 186.447 362.07C186.603 362.275 186.724 362.444 186.81 362.577H186.909V358.818H188.083V369H186.949V367.827H186.81C186.724 367.966 186.601 368.142 186.442 368.354C186.283 368.562 186.056 368.75 185.761 368.915C185.466 369.078 185.073 369.159 184.583 369.159ZM184.742 368.105C185.212 368.105 185.61 367.982 185.935 367.737C186.26 367.489 186.507 367.146 186.676 366.708C186.845 366.267 186.929 365.759 186.929 365.182C186.929 364.612 186.846 364.113 186.681 363.685C186.515 363.254 186.27 362.92 185.945 362.681C185.62 362.439 185.219 362.318 184.742 362.318C184.244 362.318 183.83 362.446 183.499 362.701C183.171 362.953 182.924 363.296 182.758 363.73C182.596 364.161 182.514 364.645 182.514 365.182C182.514 365.725 182.597 366.219 182.763 366.663C182.932 367.104 183.181 367.455 183.509 367.717C183.84 367.976 184.251 368.105 184.742 368.105ZM192.641 369.179C192.158 369.179 191.718 369.088 191.324 368.906C190.93 368.72 190.616 368.453 190.384 368.105C190.152 367.754 190.036 367.33 190.036 366.832C190.036 366.395 190.123 366.04 190.295 365.768C190.467 365.493 190.698 365.278 190.986 365.122C191.274 364.966 191.592 364.85 191.94 364.774C192.292 364.695 192.645 364.632 192.999 364.585C193.463 364.526 193.84 364.481 194.128 364.451C194.42 364.418 194.632 364.363 194.764 364.287C194.9 364.211 194.968 364.078 194.968 363.889V363.849C194.968 363.359 194.834 362.978 194.565 362.706C194.3 362.434 193.898 362.298 193.357 362.298C192.797 362.298 192.358 362.421 192.04 362.666C191.722 362.911 191.498 363.173 191.369 363.452L190.255 363.054C190.454 362.59 190.719 362.229 191.051 361.97C191.385 361.708 191.75 361.526 192.144 361.423C192.542 361.317 192.933 361.264 193.318 361.264C193.563 361.264 193.845 361.294 194.163 361.354C194.484 361.41 194.794 361.528 195.092 361.707C195.394 361.886 195.644 362.156 195.843 362.517C196.042 362.878 196.141 363.362 196.141 363.969V369H194.968V367.966H194.909C194.829 368.132 194.696 368.309 194.511 368.498C194.325 368.687 194.078 368.848 193.77 368.98C193.462 369.113 193.086 369.179 192.641 369.179ZM192.82 368.125C193.284 368.125 193.676 368.034 193.994 367.852C194.315 367.669 194.557 367.434 194.72 367.146C194.885 366.857 194.968 366.554 194.968 366.236V365.162C194.918 365.222 194.809 365.276 194.64 365.326C194.474 365.372 194.282 365.414 194.063 365.45C193.848 365.483 193.637 365.513 193.432 365.54C193.23 365.563 193.066 365.583 192.94 365.599C192.635 365.639 192.35 365.704 192.085 365.793C191.823 365.879 191.611 366.01 191.448 366.186C191.289 366.358 191.21 366.594 191.21 366.892C191.21 367.3 191.36 367.608 191.662 367.817C191.967 368.022 192.353 368.125 192.82 368.125ZM201.604 361.364V362.358H197.647V361.364H201.604ZM198.8 359.534H199.973V366.812C199.973 367.144 200.021 367.393 200.117 367.558C200.217 367.721 200.343 367.83 200.495 367.886C200.651 367.939 200.815 367.966 200.988 367.966C201.117 367.966 201.223 367.959 201.306 367.946C201.389 367.929 201.455 367.916 201.505 367.906L201.743 368.96C201.664 368.99 201.553 369.02 201.41 369.05C201.268 369.083 201.087 369.099 200.868 369.099C200.537 369.099 200.212 369.028 199.894 368.886C199.579 368.743 199.317 368.526 199.108 368.234C198.903 367.943 198.8 367.575 198.8 367.131V359.534ZM205.616 369.179C205.132 369.179 204.693 369.088 204.299 368.906C203.904 368.72 203.591 368.453 203.359 368.105C203.127 367.754 203.011 367.33 203.011 366.832C203.011 366.395 203.097 366.04 203.269 365.768C203.442 365.493 203.672 365.278 203.961 365.122C204.249 364.966 204.567 364.85 204.915 364.774C205.266 364.695 205.619 364.632 205.974 364.585C206.438 364.526 206.814 364.481 207.103 364.451C207.394 364.418 207.606 364.363 207.739 364.287C207.875 364.211 207.943 364.078 207.943 363.889V363.849C207.943 363.359 207.809 362.978 207.54 362.706C207.275 362.434 206.872 362.298 206.332 362.298C205.772 362.298 205.333 362.421 205.015 362.666C204.696 362.911 204.473 363.173 204.343 363.452L203.23 363.054C203.429 362.59 203.694 362.229 204.025 361.97C204.36 361.708 204.725 361.526 205.119 361.423C205.517 361.317 205.908 361.264 206.292 361.264C206.537 361.264 206.819 361.294 207.137 361.354C207.459 361.41 207.769 361.528 208.067 361.707C208.369 361.886 208.619 362.156 208.818 362.517C209.017 362.878 209.116 363.362 209.116 363.969V369H207.943V367.966H207.883C207.804 368.132 207.671 368.309 207.485 368.498C207.3 368.687 207.053 368.848 206.745 368.98C206.436 369.113 206.06 369.179 205.616 369.179ZM205.795 368.125C206.259 368.125 206.65 368.034 206.968 367.852C207.29 367.669 207.532 367.434 207.694 367.146C207.86 366.857 207.943 366.554 207.943 366.236V365.162C207.893 365.222 207.784 365.276 207.615 365.326C207.449 365.372 207.257 365.414 207.038 365.45C206.823 365.483 206.612 365.513 206.407 365.54C206.204 365.563 206.04 365.583 205.914 365.599C205.609 365.639 205.324 365.704 205.059 365.793C204.797 365.879 204.585 366.01 204.423 366.186C204.264 366.358 204.184 366.594 204.184 366.892C204.184 367.3 204.335 367.608 204.637 367.817C204.942 368.022 205.328 368.125 205.795 368.125ZM217.442 369.179C216.958 369.179 216.519 369.088 216.125 368.906C215.73 368.72 215.417 368.453 215.185 368.105C214.953 367.754 214.837 367.33 214.837 366.832C214.837 366.395 214.923 366.04 215.096 365.768C215.268 365.493 215.498 365.278 215.787 365.122C216.075 364.966 216.393 364.85 216.741 364.774C217.093 364.695 217.446 364.632 217.8 364.585C218.264 364.526 218.64 364.481 218.929 364.451C219.22 364.418 219.433 364.363 219.565 364.287C219.701 364.211 219.769 364.078 219.769 363.889V363.849C219.769 363.359 219.635 362.978 219.366 362.706C219.101 362.434 218.698 362.298 218.158 362.298C217.598 362.298 217.159 362.421 216.841 362.666C216.523 362.911 216.299 363.173 216.17 363.452L215.056 363.054C215.255 362.59 215.52 362.229 215.851 361.97C216.186 361.708 216.551 361.526 216.945 361.423C217.343 361.317 217.734 361.264 218.118 361.264C218.364 361.264 218.645 361.294 218.964 361.354C219.285 361.41 219.595 361.528 219.893 361.707C220.195 361.886 220.445 362.156 220.644 362.517C220.843 362.878 220.942 363.362 220.942 363.969V369H219.769V367.966H219.709C219.63 368.132 219.497 368.309 219.312 368.498C219.126 368.687 218.879 368.848 218.571 368.98C218.263 369.113 217.886 369.179 217.442 369.179ZM217.621 368.125C218.085 368.125 218.476 368.034 218.795 367.852C219.116 367.669 219.358 367.434 219.52 367.146C219.686 366.857 219.769 366.554 219.769 366.236V365.162C219.719 365.222 219.61 365.276 219.441 365.326C219.275 365.372 219.083 365.414 218.864 365.45C218.649 365.483 218.438 365.513 218.233 365.54C218.031 365.563 217.866 365.583 217.741 365.599C217.436 365.639 217.151 365.704 216.885 365.793C216.624 365.879 216.411 366.01 216.249 366.186C216.09 366.358 216.01 366.594 216.01 366.892C216.01 367.3 216.161 367.608 216.463 367.817C216.768 368.022 217.154 368.125 217.621 368.125ZM229.055 361.364L226.231 369H225.038L222.214 361.364H223.486L225.594 367.449H225.674L227.782 361.364H229.055ZM232.618 369.179C232.134 369.179 231.695 369.088 231.301 368.906C230.906 368.72 230.593 368.453 230.361 368.105C230.129 367.754 230.013 367.33 230.013 366.832C230.013 366.395 230.099 366.04 230.271 365.768C230.444 365.493 230.674 365.278 230.962 365.122C231.251 364.966 231.569 364.85 231.917 364.774C232.268 364.695 232.621 364.632 232.976 364.585C233.44 364.526 233.816 364.481 234.105 364.451C234.396 364.418 234.608 364.363 234.741 364.287C234.877 364.211 234.945 364.078 234.945 363.889V363.849C234.945 363.359 234.811 362.978 234.542 362.706C234.277 362.434 233.874 362.298 233.334 362.298C232.774 362.298 232.335 362.421 232.016 362.666C231.698 362.911 231.475 363.173 231.345 363.452L230.232 363.054C230.431 362.59 230.696 362.229 231.027 361.97C231.362 361.708 231.726 361.526 232.121 361.423C232.519 361.317 232.91 361.264 233.294 361.264C233.539 361.264 233.821 361.294 234.139 361.354C234.461 361.41 234.771 361.528 235.069 361.707C235.371 361.886 235.621 362.156 235.82 362.517C236.019 362.878 236.118 363.362 236.118 363.969V369H234.945V367.966H234.885C234.806 368.132 234.673 368.309 234.487 368.498C234.302 368.687 234.055 368.848 233.747 368.98C233.438 369.113 233.062 369.179 232.618 369.179ZM232.797 368.125C233.261 368.125 233.652 368.034 233.97 367.852C234.292 367.669 234.534 367.434 234.696 367.146C234.862 366.857 234.945 366.554 234.945 366.236V365.162C234.895 365.222 234.786 365.276 234.617 365.326C234.451 365.372 234.259 365.414 234.04 365.45C233.824 365.483 233.614 365.513 233.409 365.54C233.206 365.563 233.042 365.583 232.916 365.599C232.611 365.639 232.326 365.704 232.061 365.793C231.799 365.879 231.587 366.01 231.425 366.186C231.266 366.358 231.186 366.594 231.186 366.892C231.186 367.3 231.337 367.608 231.639 367.817C231.944 368.022 232.33 368.125 232.797 368.125ZM238.26 369V361.364H239.433V369H238.26ZM238.856 360.091C238.627 360.091 238.43 360.013 238.265 359.857C238.102 359.701 238.021 359.514 238.021 359.295C238.021 359.077 238.102 358.889 238.265 358.734C238.43 358.578 238.627 358.5 238.856 358.5C239.085 358.5 239.28 358.578 239.443 358.734C239.609 358.889 239.691 359.077 239.691 359.295C239.691 359.514 239.609 359.701 239.443 359.857C239.28 360.013 239.085 360.091 238.856 360.091ZM242.755 358.818V369H241.582V358.818H242.755ZM247.151 369.179C246.667 369.179 246.228 369.088 245.834 368.906C245.439 368.72 245.126 368.453 244.894 368.105C244.662 367.754 244.546 367.33 244.546 366.832C244.546 366.395 244.632 366.04 244.805 365.768C244.977 365.493 245.207 365.278 245.496 365.122C245.784 364.966 246.102 364.85 246.45 364.774C246.802 364.695 247.155 364.632 247.509 364.585C247.973 364.526 248.349 364.481 248.638 364.451C248.929 364.418 249.142 364.363 249.274 364.287C249.41 364.211 249.478 364.078 249.478 363.889V363.849C249.478 363.359 249.344 362.978 249.075 362.706C248.81 362.434 248.407 362.298 247.867 362.298C247.307 362.298 246.868 362.421 246.55 362.666C246.231 362.911 246.008 363.173 245.879 363.452L244.765 363.054C244.964 362.59 245.229 362.229 245.56 361.97C245.895 361.708 246.26 361.526 246.654 361.423C247.052 361.317 247.443 361.264 247.827 361.264C248.073 361.264 248.354 361.294 248.673 361.354C248.994 361.41 249.304 361.528 249.602 361.707C249.904 361.886 250.154 362.156 250.353 362.517C250.552 362.878 250.651 363.362 250.651 363.969V369H249.478V367.966H249.418C249.339 368.132 249.206 368.309 249.021 368.498C248.835 368.687 248.588 368.848 248.28 368.98C247.972 369.113 247.595 369.179 247.151 369.179ZM247.33 368.125C247.794 368.125 248.185 368.034 248.504 367.852C248.825 367.669 249.067 367.434 249.229 367.146C249.395 366.857 249.478 366.554 249.478 366.236V365.162C249.428 365.222 249.319 365.276 249.15 365.326C248.984 365.372 248.792 365.414 248.573 365.45C248.358 365.483 248.147 365.513 247.942 365.54C247.74 365.563 247.575 365.583 247.45 365.599C247.145 365.639 246.86 365.704 246.594 365.793C246.333 365.879 246.12 366.01 245.958 366.186C245.799 366.358 245.719 366.594 245.719 366.892C245.719 367.3 245.87 367.608 246.172 367.817C246.477 368.022 246.863 368.125 247.33 368.125ZM252.952 369V358.818H254.125V362.577H254.225C254.311 362.444 254.43 362.275 254.583 362.07C254.738 361.861 254.96 361.675 255.249 361.513C255.54 361.347 255.935 361.264 256.432 361.264C257.075 361.264 257.642 361.425 258.132 361.746C258.623 362.068 259.006 362.524 259.281 363.114C259.556 363.704 259.693 364.4 259.693 365.202C259.693 366.01 259.556 366.711 259.281 367.305C259.006 367.895 258.624 368.352 258.137 368.677C257.65 368.998 257.088 369.159 256.452 369.159C255.961 369.159 255.569 369.078 255.274 368.915C254.979 368.75 254.752 368.562 254.592 368.354C254.433 368.142 254.311 367.966 254.225 367.827H254.085V369H252.952ZM254.105 365.182C254.105 365.759 254.19 366.267 254.359 366.708C254.528 367.146 254.775 367.489 255.1 367.737C255.424 367.982 255.822 368.105 256.293 368.105C256.783 368.105 257.193 367.976 257.521 367.717C257.852 367.455 258.101 367.104 258.266 366.663C258.436 366.219 258.52 365.725 258.52 365.182C258.52 364.645 258.437 364.161 258.271 363.73C258.109 363.296 257.862 362.953 257.531 362.701C257.203 362.446 256.79 362.318 256.293 362.318C255.815 362.318 255.414 362.439 255.09 362.681C254.765 362.92 254.52 363.254 254.354 363.685C254.188 364.113 254.105 364.612 254.105 365.182ZM262.661 358.818V369H261.488V358.818H262.661ZM268.012 369.159C267.276 369.159 266.642 368.997 266.108 368.672C265.578 368.344 265.168 367.886 264.88 367.3C264.595 366.71 264.452 366.024 264.452 365.241C264.452 364.459 264.595 363.77 264.88 363.173C265.168 362.573 265.569 362.106 266.083 361.771C266.6 361.433 267.203 361.264 267.893 361.264C268.29 361.264 268.683 361.33 269.071 361.463C269.459 361.596 269.812 361.811 270.13 362.109C270.448 362.404 270.702 362.795 270.891 363.283C271.08 363.77 271.174 364.37 271.174 365.082V365.58H265.288V364.565H269.981C269.981 364.134 269.895 363.75 269.722 363.412C269.553 363.074 269.311 362.807 268.996 362.612C268.685 362.416 268.317 362.318 267.893 362.318C267.425 362.318 267.021 362.434 266.68 362.666C266.342 362.895 266.081 363.193 265.899 363.561C265.717 363.929 265.626 364.323 265.626 364.744V365.42C265.626 365.997 265.725 366.486 265.924 366.887C266.126 367.285 266.406 367.588 266.764 367.797C267.122 368.002 267.538 368.105 268.012 368.105C268.32 368.105 268.599 368.062 268.847 367.976C269.099 367.886 269.316 367.754 269.499 367.578C269.681 367.399 269.822 367.177 269.921 366.912L271.055 367.23C270.935 367.615 270.735 367.953 270.453 368.244C270.171 368.533 269.823 368.758 269.409 368.92C268.995 369.08 268.529 369.159 268.012 369.159ZM274.709 367.608L274.629 368.145C274.573 368.523 274.487 368.927 274.371 369.358C274.258 369.789 274.14 370.195 274.018 370.576C273.895 370.957 273.794 371.26 273.714 371.486H272.82C272.863 371.274 272.919 370.994 272.989 370.646C273.058 370.298 273.128 369.908 273.197 369.477C273.27 369.05 273.33 368.612 273.376 368.165L273.436 367.608H274.709ZM280.82 371.864V361.364H281.954V362.577H282.093C282.179 362.444 282.298 362.275 282.451 362.07C282.607 361.861 282.829 361.675 283.117 361.513C283.409 361.347 283.803 361.264 284.3 361.264C284.943 361.264 285.51 361.425 286 361.746C286.491 362.068 286.874 362.524 287.149 363.114C287.424 363.704 287.562 364.4 287.562 365.202C287.562 366.01 287.424 366.711 287.149 367.305C286.874 367.895 286.493 368.352 286.005 368.677C285.518 368.998 284.956 369.159 284.32 369.159C283.83 369.159 283.437 369.078 283.142 368.915C282.847 368.75 282.62 368.562 282.461 368.354C282.302 368.142 282.179 367.966 282.093 367.827H281.993V371.864H280.82ZM281.973 365.182C281.973 365.759 282.058 366.267 282.227 366.708C282.396 367.146 282.643 367.489 282.968 367.737C283.293 367.982 283.69 368.105 284.161 368.105C284.652 368.105 285.061 367.976 285.389 367.717C285.72 367.455 285.969 367.104 286.135 366.663C286.304 366.219 286.388 365.725 286.388 365.182C286.388 364.645 286.305 364.161 286.14 363.73C285.977 363.296 285.73 362.953 285.399 362.701C285.071 362.446 284.658 362.318 284.161 362.318C283.684 362.318 283.283 362.439 282.958 362.681C282.633 362.92 282.388 363.254 282.222 363.685C282.056 364.113 281.973 364.612 281.973 365.182ZM290.525 358.818V369H289.351V358.818H290.525ZM295.875 369.159C295.14 369.159 294.505 368.997 293.971 368.672C293.441 368.344 293.032 367.886 292.743 367.3C292.458 366.71 292.316 366.024 292.316 365.241C292.316 364.459 292.458 363.77 292.743 363.173C293.032 362.573 293.433 362.106 293.946 361.771C294.463 361.433 295.067 361.264 295.756 361.264C296.154 361.264 296.546 361.33 296.934 361.463C297.322 361.596 297.674 361.811 297.992 362.109C298.31 362.404 298.565 362.795 298.754 363.283C298.943 363.77 299.036 364.37 299.036 365.082V365.58H293.151V364.565H297.844C297.844 364.134 297.758 363.75 297.586 363.412C297.417 363.074 297.175 362.807 296.86 362.612C296.548 362.416 296.18 362.318 295.756 362.318C295.289 362.318 294.884 362.434 294.543 362.666C294.205 362.895 293.945 363.193 293.762 363.561C293.58 363.929 293.489 364.323 293.489 364.744V365.42C293.489 365.997 293.588 366.486 293.787 366.887C293.989 367.285 294.269 367.588 294.627 367.797C294.985 368.002 295.401 368.105 295.875 368.105C296.184 368.105 296.462 368.062 296.711 367.976C296.962 367.886 297.18 367.754 297.362 367.578C297.544 367.399 297.685 367.177 297.784 366.912L298.918 367.23C298.799 367.615 298.597 367.953 298.315 368.244C298.034 368.533 297.687 368.758 297.272 368.92C296.858 369.08 296.392 369.159 295.875 369.159ZM303.069 369.179C302.585 369.179 302.145 369.088 301.751 368.906C301.356 368.72 301.043 368.453 300.811 368.105C300.579 367.754 300.464 367.33 300.464 366.832C300.464 366.395 300.55 366.04 300.723 365.768C300.895 365.493 301.125 365.278 301.414 365.122C301.702 364.966 302.019 364.85 302.367 364.774C302.719 364.695 303.073 364.632 303.427 364.585C303.891 364.526 304.267 364.481 304.556 364.451C304.847 364.418 305.058 364.363 305.191 364.287C305.327 364.211 305.396 364.078 305.396 363.889V363.849C305.396 363.359 305.261 362.978 304.992 362.706C304.727 362.434 304.325 362.298 303.785 362.298C303.225 362.298 302.785 362.421 302.467 362.666C302.148 362.911 301.926 363.173 301.796 363.452L300.682 363.054C300.881 362.59 301.147 362.229 301.478 361.97C301.813 361.708 302.178 361.526 302.572 361.423C302.97 361.317 303.361 361.264 303.745 361.264C303.991 361.264 304.272 361.294 304.591 361.354C304.912 361.41 305.222 361.528 305.52 361.707C305.822 361.886 306.072 362.156 306.271 362.517C306.47 362.878 306.569 363.362 306.569 363.969V369H305.396V367.966H305.336C305.257 368.132 305.124 368.309 304.939 368.498C304.753 368.687 304.506 368.848 304.198 368.98C303.89 369.113 303.513 369.179 303.069 369.179ZM303.247 368.125C303.711 368.125 304.103 368.034 304.421 367.852C304.743 367.669 304.985 367.434 305.147 367.146C305.313 366.857 305.396 366.554 305.396 366.236V365.162C305.346 365.222 305.237 365.276 305.068 365.326C304.902 365.372 304.71 365.414 304.491 365.45C304.276 365.483 304.064 365.513 303.859 365.54C303.657 365.563 303.493 365.583 303.367 365.599C303.063 365.639 302.778 365.704 302.512 365.793C302.251 365.879 302.037 366.01 301.875 366.186C301.716 366.358 301.637 366.594 301.637 366.892C301.637 367.3 301.788 367.608 302.09 367.817C302.395 368.022 302.78 368.125 303.247 368.125ZM314.12 363.074L313.065 363.372C312.999 363.196 312.901 363.026 312.772 362.86C312.646 362.691 312.473 362.552 312.254 362.442C312.036 362.333 311.756 362.278 311.414 362.278C310.947 362.278 310.557 362.386 310.246 362.602C309.938 362.814 309.785 363.084 309.785 363.412C309.785 363.704 309.891 363.934 310.103 364.103C310.315 364.272 310.645 364.413 311.096 364.526L312.23 364.804C312.912 364.97 313.422 365.223 313.757 365.565C314.092 365.903 314.259 366.339 314.259 366.872C314.259 367.31 314.132 367.701 313.88 368.045C313.632 368.39 313.284 368.662 312.836 368.861C312.389 369.06 311.869 369.159 311.276 369.159C310.497 369.159 309.852 368.99 309.341 368.652C308.831 368.314 308.508 367.82 308.372 367.17L309.486 366.892C309.592 367.303 309.792 367.611 310.087 367.817C310.385 368.022 310.775 368.125 311.255 368.125C311.802 368.125 312.237 368.009 312.559 367.777C312.884 367.542 313.046 367.26 313.046 366.932C313.046 366.667 312.952 366.445 312.767 366.266C312.581 366.083 312.296 365.947 311.911 365.858L310.639 365.56C309.939 365.394 309.427 365.137 309.098 364.789C308.774 364.438 308.611 363.999 308.611 363.472C308.611 363.041 308.732 362.66 308.974 362.328C309.219 361.997 309.553 361.737 309.973 361.548C310.398 361.359 310.877 361.264 311.414 361.264C312.17 361.264 312.763 361.43 313.194 361.761C313.628 362.093 313.938 362.53 314.12 363.074ZM319.227 369.159C318.491 369.159 317.856 368.997 317.323 368.672C316.792 368.344 316.383 367.886 316.095 367.3C315.81 366.71 315.667 366.024 315.667 365.241C315.667 364.459 315.81 363.77 316.095 363.173C316.383 362.573 316.784 362.106 317.298 361.771C317.815 361.433 318.418 361.264 319.108 361.264C319.505 361.264 319.897 361.33 320.285 361.463C320.673 361.596 321.027 361.811 321.345 362.109C321.663 362.404 321.916 362.795 322.104 363.283C322.293 363.77 322.388 364.37 322.388 365.082V365.58H316.501V364.565H321.195C321.195 364.134 321.108 363.75 320.936 363.412C320.767 363.074 320.526 362.807 320.211 362.612C319.9 362.416 319.532 362.318 319.108 362.318C318.64 362.318 318.235 362.434 317.893 362.666C317.555 362.895 317.295 363.193 317.113 363.561C316.931 363.929 316.841 364.323 316.841 364.744V365.42C316.841 365.997 316.939 366.486 317.138 366.887C317.34 367.285 317.621 367.588 317.979 367.797C318.337 368.002 318.753 368.105 319.227 368.105C319.535 368.105 319.813 368.062 320.061 367.976C320.313 367.886 320.53 367.754 320.712 367.578C320.895 367.399 321.036 367.177 321.135 366.912L322.268 367.23C322.149 367.615 321.95 367.953 321.668 368.244C321.386 368.533 321.038 368.758 320.624 368.92C320.21 369.08 319.744 369.159 319.227 369.159ZM331.212 369.159C330.496 369.159 329.88 368.99 329.363 368.652C328.846 368.314 328.449 367.848 328.171 367.255C327.892 366.662 327.753 365.984 327.753 365.222C327.753 364.446 327.896 363.762 328.181 363.168C328.469 362.572 328.87 362.106 329.384 361.771C329.901 361.433 330.504 361.264 331.193 361.264C331.73 361.264 332.214 361.364 332.645 361.562C333.076 361.761 333.428 362.04 333.703 362.398C333.978 362.756 334.15 363.173 334.216 363.651H333.043C332.953 363.303 332.754 362.994 332.445 362.726C332.14 362.454 331.729 362.318 331.212 362.318C330.755 362.318 330.354 362.437 330.009 362.676C329.668 362.911 329.402 363.245 329.21 363.675C329.021 364.103 328.926 364.605 328.926 365.182C328.926 365.772 329.018 366.286 329.204 366.723C329.393 367.161 329.659 367.5 330 367.742C330.345 367.984 330.748 368.105 331.212 368.105C331.517 368.105 331.794 368.052 332.043 367.946C332.291 367.84 332.502 367.688 332.674 367.489C332.846 367.29 332.97 367.051 333.043 366.773H334.216C334.15 367.223 333.986 367.629 333.724 367.991C333.466 368.349 333.121 368.634 332.694 368.846C332.27 369.055 331.776 369.159 331.212 369.159ZM335.931 369V361.364H337.065V362.517H337.143C337.283 362.139 337.536 361.833 337.9 361.597C338.265 361.362 338.676 361.244 339.133 361.244C339.219 361.244 339.327 361.246 339.456 361.249C339.586 361.253 339.683 361.258 339.75 361.264V362.457C339.71 362.447 339.618 362.433 339.475 362.413C339.336 362.389 339.189 362.378 339.034 362.378C338.662 362.378 338.331 362.456 338.039 362.612C337.751 362.764 337.522 362.976 337.353 363.248C337.188 363.516 337.104 363.823 337.104 364.168V369H335.931ZM344.109 369.159C343.373 369.159 342.739 368.997 342.206 368.672C341.675 368.344 341.266 367.886 340.978 367.3C340.693 366.71 340.549 366.024 340.549 365.241C340.549 364.459 340.693 363.77 340.978 363.173C341.266 362.573 341.667 362.106 342.181 361.771C342.698 361.433 343.301 361.264 343.99 361.264C344.388 361.264 344.78 361.33 345.168 361.463C345.555 361.596 345.909 361.811 346.228 362.109C346.546 362.404 346.798 362.795 346.987 363.283C347.176 363.77 347.272 364.37 347.272 365.082V365.58H341.384V364.565H346.078C346.078 364.134 345.991 363.75 345.819 363.412C345.65 363.074 345.409 362.807 345.094 362.612C344.783 362.416 344.415 362.318 343.99 362.318C343.523 362.318 343.118 362.434 342.776 362.666C342.438 362.895 342.178 363.193 341.996 363.561C341.813 363.929 341.723 364.323 341.723 364.744V365.42C341.723 365.997 341.823 366.486 342.022 366.887C342.224 367.285 342.504 367.588 342.862 367.797C343.22 368.002 343.635 368.105 344.109 368.105C344.417 368.105 344.695 368.062 344.944 367.976C345.196 367.886 345.413 367.754 345.595 367.578C345.777 367.399 345.918 367.177 346.018 366.912L347.151 367.23C347.032 367.615 346.832 367.953 346.551 368.244C346.269 368.533 345.921 368.758 345.507 368.92C345.092 369.08 344.626 369.159 344.109 369.159ZM351.303 369.179C350.819 369.179 350.381 369.088 349.986 368.906C349.592 368.72 349.278 368.453 349.046 368.105C348.814 367.754 348.698 367.33 348.698 366.832C348.698 366.395 348.785 366.04 348.957 365.768C349.129 365.493 349.359 365.278 349.647 365.122C349.935 364.966 350.255 364.85 350.603 364.774C350.954 364.695 351.306 364.632 351.661 364.585C352.125 364.526 352.501 364.481 352.789 364.451C353.081 364.418 353.294 364.363 353.426 364.287C353.562 364.211 353.629 364.078 353.629 363.889V363.849C353.629 363.359 353.496 362.978 353.228 362.706C352.962 362.434 352.559 362.298 352.018 362.298C351.458 362.298 351.02 362.421 350.702 362.666C350.384 362.911 350.159 363.173 350.03 363.452L348.917 363.054C349.116 362.59 349.38 362.229 349.712 361.97C350.046 361.708 350.412 361.526 350.806 361.423C351.204 361.317 351.594 361.264 351.979 361.264C352.224 361.264 352.506 361.294 352.824 361.354C353.145 361.41 353.455 361.528 353.754 361.707C354.055 361.886 354.305 362.156 354.504 362.517C354.703 362.878 354.803 363.362 354.803 363.969V369H353.629V367.966H353.57C353.49 368.132 353.359 368.309 353.173 368.498C352.987 368.687 352.739 368.848 352.431 368.98C352.123 369.113 351.747 369.179 351.303 369.179ZM351.483 368.125C351.947 368.125 352.337 368.034 352.655 367.852C352.976 367.669 353.219 367.434 353.382 367.146C353.547 366.857 353.629 366.554 353.629 366.236V365.162C353.58 365.222 353.471 365.276 353.302 365.326C353.136 365.372 352.943 365.414 352.724 365.45C352.509 365.483 352.3 365.513 352.094 365.54C351.892 365.563 351.728 365.583 351.602 365.599C351.297 365.639 351.011 365.704 350.746 365.793C350.484 365.879 350.272 366.01 350.109 366.186C349.95 366.358 349.871 366.594 349.871 366.892C349.871 367.3 350.022 367.608 350.323 367.817C350.628 368.022 351.015 368.125 351.483 368.125ZM360.266 361.364V362.358H356.309V361.364H360.266ZM357.461 359.534H358.634V366.812C358.634 367.144 358.683 367.393 358.78 367.558C358.879 367.721 359.004 367.83 359.156 367.886C359.312 367.939 359.477 367.966 359.65 367.966C359.779 367.966 359.884 367.959 359.967 367.946C360.05 367.929 360.117 367.916 360.167 367.906L360.405 368.96C360.326 368.99 360.215 369.02 360.072 369.05C359.93 369.083 359.749 369.099 359.53 369.099C359.199 369.099 358.874 369.028 358.556 368.886C358.241 368.743 357.979 368.526 357.77 368.234C357.565 367.943 357.461 367.575 357.461 367.131V359.534ZM365.151 369.159C364.415 369.159 363.779 368.997 363.246 368.672C362.715 368.344 362.306 367.886 362.018 367.3C361.733 366.71 361.591 366.024 361.591 365.241C361.591 364.459 361.733 363.77 362.018 363.173C362.306 362.573 362.707 362.106 363.221 361.771C363.738 361.433 364.341 361.264 365.03 361.264C365.428 361.264 365.822 361.33 366.21 361.463C366.597 361.596 366.949 361.811 367.268 362.109C367.586 362.404 367.84 362.795 368.029 363.283C368.218 363.77 368.312 364.37 368.312 365.082V365.58H362.426V364.565H367.118C367.118 364.134 367.033 363.75 366.861 363.412C366.692 363.074 366.449 362.807 366.134 362.612C365.823 362.416 365.455 362.318 365.03 362.318C364.563 362.318 364.16 362.434 363.818 362.666C363.48 362.895 363.22 363.193 363.038 363.561C362.855 363.929 362.763 364.323 362.763 364.744V365.42C362.763 365.997 362.863 366.486 363.062 366.887C363.265 367.285 363.544 367.588 363.902 367.797C364.26 368.002 364.677 368.105 365.151 368.105C365.459 368.105 365.737 368.062 365.986 367.976C366.238 367.886 366.455 367.754 366.637 367.578C366.819 367.399 366.96 367.177 367.06 366.912L368.193 367.23C368.074 367.615 367.872 367.953 367.591 368.244C367.309 368.533 366.962 368.758 366.548 368.92C366.133 369.08 365.668 369.159 365.151 369.159ZM374.035 369V361.364H375.168V362.557H375.267C375.426 362.149 375.684 361.833 376.038 361.607C376.393 361.379 376.818 361.264 377.315 361.264C377.819 361.264 378.238 361.379 378.573 361.607C378.911 361.833 379.175 362.149 379.363 362.557H379.444C379.64 362.162 379.932 361.849 380.323 361.617C380.714 361.382 381.183 361.264 381.73 361.264C382.413 361.264 382.971 361.478 383.405 361.906C383.84 362.33 384.057 362.991 384.057 363.889V369H382.884V363.889C382.884 363.326 382.73 362.923 382.422 362.681C382.114 362.439 381.75 362.318 381.332 362.318C380.795 362.318 380.38 362.481 380.085 362.805C379.79 363.127 379.642 363.535 379.642 364.028V369H378.449V363.77C378.449 363.336 378.308 362.986 378.026 362.721C377.744 362.452 377.382 362.318 376.938 362.318C376.632 362.318 376.347 362.399 376.082 362.562C375.82 362.724 375.609 362.95 375.447 363.238C375.288 363.523 375.207 363.853 375.207 364.227V369H374.035ZM389.305 369.159C388.616 369.159 388.011 368.995 387.491 368.667C386.973 368.339 386.568 367.88 386.276 367.29C385.988 366.7 385.845 366.01 385.845 365.222C385.845 364.426 385.988 363.732 386.276 363.138C386.568 362.545 386.973 362.085 387.491 361.756C388.011 361.428 388.616 361.264 389.305 361.264C389.995 361.264 390.598 361.428 391.115 361.756C391.635 362.085 392.04 362.545 392.328 363.138C392.62 363.732 392.764 364.426 392.764 365.222C392.764 366.01 392.62 366.7 392.328 367.29C392.04 367.88 391.635 368.339 391.115 368.667C390.598 368.995 389.995 369.159 389.305 369.159ZM389.305 368.105C389.829 368.105 390.26 367.971 390.598 367.702C390.936 367.434 391.186 367.081 391.348 366.643C391.511 366.206 391.591 365.732 391.591 365.222C391.591 364.711 391.511 364.236 391.348 363.795C391.186 363.354 390.936 362.998 390.598 362.726C390.26 362.454 389.829 362.318 389.305 362.318C388.782 362.318 388.351 362.454 388.013 362.726C387.674 362.998 387.424 363.354 387.262 363.795C387.099 364.236 387.017 364.711 387.017 365.222C387.017 365.732 387.099 366.206 387.262 366.643C387.424 367.081 387.674 367.434 388.013 367.702C388.351 367.971 388.782 368.105 389.305 368.105ZM394.556 369V361.364H395.69V362.517H395.768C395.908 362.139 396.161 361.833 396.525 361.597C396.89 361.362 397.301 361.244 397.758 361.244C397.844 361.244 397.952 361.246 398.081 361.249C398.211 361.253 398.308 361.258 398.375 361.264V362.457C398.335 362.447 398.243 362.433 398.1 362.413C397.961 362.389 397.814 362.378 397.659 362.378C397.287 362.378 396.956 362.456 396.664 362.612C396.376 362.764 396.147 362.976 395.978 363.248C395.813 363.516 395.729 363.823 395.729 364.168V369H394.556ZM402.734 369.159C401.998 369.159 401.364 368.997 400.831 368.672C400.3 368.344 399.891 367.886 399.603 367.3C399.318 366.71 399.174 366.024 399.174 365.241C399.174 364.459 399.318 363.77 399.603 363.173C399.891 362.573 400.292 362.106 400.806 361.771C401.323 361.433 401.926 361.264 402.615 361.264C403.013 361.264 403.405 361.33 403.793 361.463C404.18 361.596 404.534 361.811 404.853 362.109C405.171 362.404 405.423 362.795 405.612 363.283C405.801 363.77 405.897 364.37 405.897 365.082V365.58H400.009V364.565H404.703C404.703 364.134 404.616 363.75 404.444 363.412C404.275 363.074 404.034 362.807 403.719 362.612C403.408 362.416 403.04 362.318 402.615 362.318C402.148 362.318 401.743 362.434 401.401 362.666C401.063 362.895 400.803 363.193 400.621 363.561C400.438 363.929 400.348 364.323 400.348 364.744V365.42C400.348 365.997 400.448 366.486 400.647 366.887C400.849 367.285 401.129 367.588 401.487 367.797C401.845 368.002 402.26 368.105 402.734 368.105C403.042 368.105 403.32 368.062 403.569 367.976C403.821 367.886 404.038 367.754 404.22 367.578C404.402 367.399 404.543 367.177 404.643 366.912L405.776 367.23C405.657 367.615 405.457 367.953 405.176 368.244C404.894 368.533 404.546 368.758 404.132 368.92C403.717 369.08 403.251 369.159 402.734 369.159ZM414.501 369.159C413.865 369.159 413.303 368.998 412.816 368.677C412.329 368.352 411.948 367.895 411.673 367.305C411.398 366.711 411.26 366.01 411.26 365.202C411.26 364.4 411.398 363.704 411.673 363.114C411.948 362.524 412.332 362.068 412.822 361.746C413.313 361.425 413.879 361.264 414.522 361.264C415.019 361.264 415.412 361.347 415.701 361.513C415.992 361.675 416.214 361.861 416.367 362.07C416.523 362.275 416.643 362.444 416.729 362.577H416.828V358.818H418.001V369H416.868V367.827H416.729C416.643 367.966 416.521 368.142 416.362 368.354C416.203 368.562 415.976 368.75 415.681 368.915C415.386 369.078 414.992 369.159 414.501 369.159ZM414.661 368.105C415.131 368.105 415.529 367.982 415.854 367.737C416.179 367.489 416.426 367.146 416.595 366.708C416.765 366.267 416.849 365.759 416.849 365.182C416.849 364.612 416.765 364.113 416.599 363.685C416.434 363.254 416.189 362.92 415.865 362.681C415.54 362.439 415.138 362.318 414.661 362.318C414.163 362.318 413.749 362.446 413.418 362.701C413.09 362.953 412.843 363.296 412.677 363.73C412.514 364.161 412.434 364.645 412.434 365.182C412.434 365.725 412.516 366.219 412.682 366.663C412.851 367.104 413.099 367.455 413.428 367.717C413.759 367.976 414.17 368.105 414.661 368.105ZM422.56 369.179C422.076 369.179 421.637 369.088 421.243 368.906C420.849 368.72 420.535 368.453 420.303 368.105C420.071 367.754 419.956 367.33 419.956 366.832C419.956 366.395 420.042 366.04 420.215 365.768C420.387 365.493 420.616 365.278 420.905 365.122C421.193 364.966 421.511 364.85 421.859 364.774C422.211 364.695 422.564 364.632 422.918 364.585C423.382 364.526 423.76 364.481 424.048 364.451C424.34 364.418 424.552 364.363 424.684 364.287C424.82 364.211 424.888 364.078 424.888 363.889V363.849C424.888 363.359 424.753 362.978 424.484 362.706C424.219 362.434 423.817 362.298 423.276 362.298C422.716 362.298 422.278 362.421 421.96 362.666C421.642 362.911 421.418 363.173 421.289 363.452L420.174 363.054C420.373 362.59 420.639 362.229 420.97 361.97C421.305 361.708 421.67 361.526 422.064 361.423C422.462 361.317 422.852 361.264 423.237 361.264C423.482 361.264 423.764 361.294 424.082 361.354C424.403 361.41 424.714 361.528 425.012 361.707C425.314 361.886 425.564 362.156 425.763 362.517C425.962 362.878 426.06 363.362 426.06 363.969V369H424.888V367.966H424.828C424.749 368.132 424.616 368.309 424.431 368.498C424.245 368.687 423.998 368.848 423.69 368.98C423.382 369.113 423.005 369.179 422.56 369.179ZM422.74 368.125C423.204 368.125 423.595 368.034 423.914 367.852C424.235 367.669 424.476 367.434 424.639 367.146C424.804 366.857 424.888 366.554 424.888 366.236V365.162C424.838 365.222 424.729 365.276 424.56 365.326C424.394 365.372 424.202 365.414 423.983 365.45C423.768 365.483 423.557 365.513 423.352 365.54C423.15 365.563 422.985 365.583 422.859 365.599C422.554 365.639 422.269 365.704 422.004 365.793C421.742 365.879 421.53 366.01 421.367 366.186C421.208 366.358 421.129 366.594 421.129 366.892C421.129 367.3 421.28 367.608 421.582 367.817C421.887 368.022 422.273 368.125 422.74 368.125ZM431.523 361.364V362.358H427.566V361.364H431.523ZM428.72 359.534H429.892V366.812C429.892 367.144 429.94 367.393 430.036 367.558C430.136 367.721 430.262 367.83 430.414 367.886C430.57 367.939 430.734 367.966 430.906 367.966C431.036 367.966 431.142 367.959 431.225 367.946C431.307 367.929 431.374 367.916 431.423 367.906L431.663 368.96C431.584 368.99 431.472 369.02 431.329 369.05C431.187 369.083 431.007 369.099 430.788 369.099C430.457 369.099 430.132 369.028 429.814 368.886C429.499 368.743 429.236 368.526 429.027 368.234C428.822 367.943 428.72 367.575 428.72 367.131V359.534ZM435.535 369.179C435.051 369.179 434.613 369.088 434.219 368.906C433.824 368.72 433.511 368.453 433.279 368.105C433.047 367.754 432.931 367.33 432.931 366.832C432.931 366.395 433.017 366.04 433.189 365.768C433.362 365.493 433.591 365.278 433.879 365.122C434.168 364.966 434.487 364.85 434.835 364.774C435.186 364.695 435.538 364.632 435.893 364.585C436.357 364.526 436.733 364.481 437.022 364.451C437.313 364.418 437.526 364.363 437.659 364.287C437.795 364.211 437.862 364.078 437.862 363.889V363.849C437.862 363.359 437.728 362.978 437.46 362.706C437.195 362.434 436.791 362.298 436.251 362.298C435.691 362.298 435.253 362.421 434.934 362.666C434.616 362.911 434.393 363.173 434.263 363.452L433.15 363.054C433.348 362.59 433.613 362.229 433.944 361.97C434.279 361.708 434.644 361.526 435.039 361.423C435.437 361.317 435.827 361.264 436.211 361.264C436.456 361.264 436.738 361.294 437.056 361.354C437.378 361.41 437.689 361.528 437.987 361.707C438.289 361.886 438.538 362.156 438.737 362.517C438.936 362.878 439.035 363.362 439.035 363.969V369H437.862V367.966H437.802C437.722 368.132 437.591 368.309 437.405 368.498C437.22 368.687 436.972 368.848 436.664 368.98C436.355 369.113 435.979 369.179 435.535 369.179ZM435.715 368.125C436.179 368.125 436.57 368.034 436.888 367.852C437.21 367.669 437.451 367.434 437.613 367.146C437.779 366.857 437.862 366.554 437.862 366.236V365.162C437.812 365.222 437.704 365.276 437.535 365.326C437.369 365.372 437.176 365.414 436.957 365.45C436.741 365.483 436.532 365.513 436.326 365.54C436.124 365.563 435.959 365.583 435.833 365.599C435.528 365.639 435.244 365.704 434.979 365.793C434.717 365.879 434.504 366.01 434.342 366.186C434.183 366.358 434.104 366.594 434.104 366.892C434.104 367.3 434.254 367.608 434.556 367.817C434.861 368.022 435.248 368.125 435.715 368.125Z" fill="#475467"/>
</g>
<defs>
<filter id="filter0_dd_102_106" x="160.214" y="204" width="160" height="112" filterUnits="userSpaceOnUse" color-interpolation-filters="sRGB">
<feFlood flood-opacity="0" result="BackgroundImageFix"/>
<feColorMatrix in="SourceAlpha" type="matrix" values="0 0 0 0 0 0 0 0 0 0 0 0 0 0 0 0 0 0 127 0" result="hardAlpha"/>
<feOffset dy="8"/>
<feGaussianBlur stdDeviation="4"/>
<feColorMatrix type="matrix" values="0 0 0 0 0.0627451 0 0 0 0 0.0941176 0 0 0 0 0.156863 0 0 0 0.03 0"/>
<feBlend mode="normal" in2="BackgroundImageFix" result="effect1_dropShadow_102_106"/>
<feColorMatrix in="SourceAlpha" type="matrix" values="0 0 0 0 0 0 0 0 0 0 0 0 0 0 0 0 0 0 127 0" result="hardAlpha"/>
<feOffset dy="20"/>
<feGaussianBlur stdDeviation="12"/>
<feColorMatrix type="matrix" values="0 0 0 0 0.0627451 0 0 0 0 0.0941176 0 0 0 0 0.156863 0 0 0 0.08 0"/>
<feBlend mode="normal" in2="effect1_dropShadow_102_106" result="effect2_dropShadow_102_106"/>
<feBlend mode="normal" in="SourceGraphic" in2="effect2_dropShadow_102_106" result="shape"/>
</filter>
<linearGradient id="paint0_linear_102_106" x1="190.157" y1="229.486" x2="235.413" y2="272" gradientUnits="userSpaceOnUse">
<stop stop-color="#D0D5DD"/>
<stop offset="0.350715" stop-color="white" stop-opacity="0"/>
</linearGradient>
<linearGradient id="paint1_linear_102_106" x1="217.243" y1="218.857" x2="273.814" y2="272" gradientUnits="userSpaceOnUse">
<stop stop-color="#D0D5DD"/>
<stop offset="0.350715" stop-color="white" stop-opacity="0"/>
</linearGradient>
<linearGradient id="paint2_linear_102_106" x1="256.613" y1="234.8" x2="296.214" y2="272" gradientUnits="userSpaceOnUse">
<stop stop-color="#D0D5DD"/>
<stop offset="0.350715" stop-color="white" stop-opacity="0"/>
</linearGradient>
<clipPath id="clip0_102_106">
<rect width="480" height="480" fill="white"/>
</clipPath>
</defs>
</svg>
