<svg width="24" height="25" viewBox="0 0 24 25" fill="none" xmlns="http://www.w3.org/2000/svg">
<g id="home-line">
<path id="Icon" d="M8 17.2241H16M11.0177 2.98812L4.23539 8.26325C3.78202 8.61587 3.55534 8.79218 3.39203 9.01298C3.24737 9.20857 3.1396 9.4289 3.07403 9.66317C3 9.92764 3 10.2148 3 10.7892V18.0241C3 19.1442 3 19.7043 3.21799 20.1321C3.40973 20.5084 3.71569 20.8144 4.09202 21.0061C4.51984 21.2241 5.07989 21.2241 6.2 21.2241H17.8C18.9201 21.2241 19.4802 21.2241 19.908 21.0061C20.2843 20.8144 20.5903 20.5084 20.782 20.1321C21 19.7043 21 19.1442 21 18.0241V10.7892C21 10.2148 21 9.92764 20.926 9.66317C20.8604 9.4289 20.7526 9.20857 20.608 9.01298C20.4447 8.79218 20.218 8.61587 19.7646 8.26325L12.9823 2.98812C12.631 2.71487 12.4553 2.57824 12.2613 2.52572C12.0902 2.47938 11.9098 2.47938 11.7387 2.52572C11.5447 2.57824 11.369 2.71487 11.0177 2.98812Z" stroke="#344054" stroke-width="2" stroke-linecap="round" stroke-linejoin="round"/>
</g>
</svg>
