<svg width="72" height="39" viewBox="0 0 72 39" fill="none" xmlns="http://www.w3.org/2000/svg"><path fill-rule="evenodd" clip-rule="evenodd" d="M48.9844 3.80453H20.6917L21.7561 0H53.9512L52 6.5L51 8L49.2289 13.7914L49.2289 15.1261H58.5L63.2257 13.7914L66.4656 19.7821L62.6866 33.2896H12.4427L13.5071 29.4851H59.8485L62.1898 21.1166L60.2857 17.596H45.126L48.9844 3.80453Z" fill="#29324E"></path> <path fill-rule="evenodd" clip-rule="evenodd" d="M48.8514 4.28027H59.6664L64.8191 17.5961H45.126L48.8514 4.28027ZM51 8.0848L49.5 14.5H58.9079L56.4842 8.0848H51Z" fill="#29324E"></path> <path d="M57.986 30.9118C56.8103 35.1142 52.3628 38.5209 48.0523 38.5209C43.7418 38.5209 41.2005 35.1142 42.3762 30.9118C43.5519 26.7094 47.9994 23.3027 52.3099 23.3027C56.6204 23.3027 59.1617 26.7094 57.986 30.9118Z" fill="#F0F3FC"></path> <path fill-rule="evenodd" clip-rule="evenodd" d="M49.1167 34.7163C51.272 34.7163 53.4957 33.013 54.0835 30.9118C54.6714 28.8106 53.4008 27.1073 51.2455 27.1073C49.0902 27.1073 46.8665 28.8106 46.2787 30.9118C45.6908 33.013 46.9615 34.7163 49.1167 34.7163ZM48.0523 38.5209C52.3628 38.5209 56.8103 35.1142 57.986 30.9118C59.1617 26.7094 56.6204 23.3027 52.3099 23.3027C47.9994 23.3027 43.5519 26.7094 42.3762 30.9118C41.2005 35.1142 43.7418 38.5209 48.0523 38.5209Z" fill="#29324E"></path> <path d="M32.62 30.9118C31.4443 35.1142 26.9969 38.5209 22.6864 38.5209C18.3759 38.5209 15.8346 35.1142 17.0103 30.9118C18.186 26.7094 22.6334 23.3027 26.9439 23.3027C31.2544 23.3027 33.7957 26.7094 32.62 30.9118Z" fill="#F0F3FC"></path> <path fill-rule="evenodd" clip-rule="evenodd" d="M23.7508 34.7163C25.906 34.7163 28.1297 33.013 28.7176 30.9118C29.3054 28.8106 28.0348 27.1073 25.8795 27.1073C23.7243 27.1073 21.5006 28.8106 20.9127 30.9118C20.3249 33.013 21.5955 34.7163 23.7508 34.7163ZM22.6864 38.5209C26.9969 38.5209 31.4443 35.1142 32.62 30.9118C33.7957 26.7094 31.2544 23.3027 26.9439 23.3027C22.6334 23.3027 18.186 26.7094 17.0103 30.9118C15.8346 35.1142 18.3759 38.5209 22.6864 38.5209Z" fill="#29324E"></path> <path fill-rule="evenodd" clip-rule="evenodd" d="M16.1241 6.18213L30.2876 6.18213L29.2233 9.98666L15.0597 9.98666L16.1241 6.18213Z" fill="#29324E"></path> <path fill-rule="evenodd" clip-rule="evenodd" d="M8.14159 13.7915L25.7875 13.7915L24.6459 16.5L7 16.5L8.14159 13.7915Z" fill="#29324E"></path> <path fill-rule="evenodd" clip-rule="evenodd" d="M8.93956 21.4004L18.6957 21.4004L17.7561 24L8 24L8.93956 21.4004Z" fill="#29324E"></path></svg>