<svg width="64" height="64" viewBox="0 0 64 64" fill="none" xmlns="http://www.w3.org/2000/svg"><path fill-rule="evenodd" clip-rule="evenodd" d="M50.6538 44.9597H22.4736L11.7289 52.3122L6.8905 55.6231L8.18165 50.5243L8.60884 48.8373L9.59075 44.9597H6.65381H5.59075H2.65381L3.63571 41.0821L10.0181 15.8776L11 12H15H59H63L62.0181 15.8776L55.6357 41.0821L54.6538 44.9597H50.6538ZM20.623 42.0108L13.02 47.2134L13.5907 44.9597L14.5727 41.0821H10.5727H7.63571L14.0181 15.8776H58.0181L51.6357 41.0821H23.4555H21.9802L20.623 42.0108ZM24.5632 25.5718H18.5632L17.0904 31.3882H23.0904L24.5632 25.5718ZM30.5632 25.5718H36.5632L35.0904 31.3882H29.0904L30.5632 25.5718ZM48.5632 25.5718H42.5632L41.0904 31.3882H47.0904L48.5632 25.5718Z" fill="#29324E"></path></svg>