<svg width="17" height="16" viewBox="0 0 17 16" fill="none" xmlns="http://www.w3.org/2000/svg">
<path d="M14.723 16H2.27798C1.96802 15.9992 1.67105 15.8755 1.45225 15.6559C1.23345 15.4364 1.11071 15.139 1.11098 14.829V8.58402C0.877007 8.57166 0.652109 8.48946 0.465314 8.34803C0.27852 8.20659 0.138405 8.01242 0.0630545 7.79056C-0.0122956 7.56871 -0.0194213 7.32937 0.0425969 7.10343C0.104615 6.87748 0.232931 6.67532 0.41098 6.52302L7.74598 0.278019C7.95643 0.0986076 8.22393 6.10352e-05 8.50048 6.10352e-05C8.77703 6.10352e-05 9.04453 0.0986076 9.25498 0.278019L16.59 6.52302C16.768 6.67532 16.8963 6.87748 16.9584 7.10343C17.0204 7.32937 17.0133 7.56871 16.9379 7.79056C16.8626 8.01242 16.7224 8.20659 16.5356 8.34803C16.3489 8.48946 16.124 8.57166 15.89 8.58402V14.825C15.8906 14.9788 15.861 15.1313 15.8026 15.2736C15.7443 15.4159 15.6585 15.5454 15.5501 15.6545C15.4417 15.7636 15.3129 15.8503 15.171 15.9096C15.029 15.9689 14.8768 15.9996 14.723 16ZM7.33298 10.149H9.66698C9.97694 10.1498 10.2739 10.2736 10.4927 10.4931C10.7115 10.7127 10.8342 11.0101 10.834 11.32V14.833H14.723V7.41702H15.835L8.49998 1.17202L1.16498 7.41702H2.27798V14.833H6.16698V11.32C6.16671 11.0102 6.28931 10.713 6.5079 10.4935C6.72648 10.274 7.0232 10.1501 7.33298 10.149ZM7.33298 11.32V14.833H9.66698V11.32H7.33298Z" fill="#959DB3"/>
</svg>
