                <svg
                  width="20"
                  height="21"
                  viewBox="0 0 20 21"
                  fill="none"
                  xmlns="http://www.w3.org/2000/svg"
                  class="setting-icon"
                >
                  <path
                    d="M19.9371 9.38956C19.9056 9.10846 19.5777 8.89699 19.2942 8.89699C18.3778 8.89699 17.5646 8.35917 17.2236 7.52676C16.8755 6.67438 17.1001 5.68049 17.7828 5.05419C17.9978 4.8576 18.024 4.5284 17.8438 4.29989C17.3746 3.7043 16.8416 3.16623 16.2596 2.69995C16.0318 2.51727 15.6972 2.5427 15.4995 2.76144C14.9035 3.42156 13.8328 3.66685 13.0054 3.32166C12.1447 2.95951 11.6015 2.08706 11.6548 1.1506C11.6724 0.856264 11.4572 0.600505 11.1639 0.56634C10.4169 0.479847 9.66326 0.477339 8.91406 0.560459C8.62448 0.592461 8.40946 0.842166 8.41906 1.13278C8.4515 2.06007 7.90209 2.91713 7.04971 3.2663C6.23226 3.60025 5.16901 3.35677 4.57419 2.70245C4.3776 2.48691 4.04884 2.46045 3.81955 2.63923C3.22032 3.10949 2.67533 3.64791 2.20187 4.23865C2.01738 4.46829 2.04463 4.80112 2.26146 4.99841C2.95764 5.62885 3.18209 6.6313 2.82064 7.49364C2.47553 8.31575 1.62193 8.84535 0.644825 8.84535C0.327742 8.83514 0.102082 9.04817 0.0670529 9.33654C-0.0208239 10.0876 -0.0217753 10.8532 0.0628147 11.6104C0.0943846 11.8927 0.431966 12.1023 0.718603 12.1023C1.58959 12.0802 2.42528 12.619 2.77635 13.4725C3.1257 14.3248 2.90082 15.3183 2.21701 15.9455C2.00311 16.1421 1.97578 16.4705 2.15637 16.6987C2.62075 17.2906 3.15424 17.829 3.73807 18.2993C3.96727 18.4839 4.30062 18.458 4.49929 18.239C5.09765 17.5773 6.16817 17.3325 6.99219 17.6783C7.85539 18.0395 8.39839 18.9119 8.34537 19.8486C8.32798 20.143 8.5437 20.3995 8.83596 20.4329C9.21826 20.4776 9.60254 20.4997 9.98804 20.4997C10.3539 20.4997 10.7199 20.4798 11.0858 20.439C11.3757 20.407 11.5904 20.1571 11.5806 19.8664C11.5472 18.9395 12.0978 18.0824 12.9491 17.7339C13.772 17.3978 14.8305 17.6437 15.4257 18.2971C15.6233 18.5122 15.9501 18.5383 16.1803 18.3603C16.7785 17.8912 17.3225 17.353 17.798 16.7607C17.9827 16.5315 17.9565 16.1983 17.7384 16.0006C17.0424 15.3706 16.8167 14.3677 17.1782 13.5063C17.5179 12.6952 18.3398 12.1507 19.2237 12.1507L19.3474 12.154C19.6344 12.1772 19.8981 11.9562 19.9328 11.6635C20.0211 10.9117 20.0221 10.147 19.9371 9.38956ZM10.0001 16.2649C6.816 16.2649 4.23497 13.6838 4.23497 10.4999C4.23497 7.3159 6.81609 4.73486 10.0001 4.73486C13.184 4.73486 15.7652 7.3159 15.7652 10.4999C15.7652 11.5806 15.4672 12.5914 14.9497 13.4558L12.4253 10.9314C12.6081 10.5005 12.7046 10.0333 12.7045 9.55122C12.7045 8.60715 12.3368 7.71964 11.6692 7.05218C11.0017 6.38471 10.1142 6.01712 9.17034 6.01712C8.85533 6.01712 8.54179 6.05898 8.23846 6.14158C8.10561 6.17782 7.99698 6.28732 7.9616 6.42044C7.92545 6.55658 7.96619 6.69609 8.07257 6.80256C8.07257 6.80256 9.31885 8.05844 9.73583 8.47533C9.77951 8.51901 9.77942 8.62323 9.77328 8.66077L9.76939 8.68819C9.72735 9.1466 9.64631 9.69687 9.57945 9.90835C9.57045 9.91725 9.56198 9.92478 9.55281 9.93395C9.54321 9.94355 9.53439 9.9528 9.52513 9.96232C9.31089 10.0311 8.75215 10.1131 8.28647 10.1548L8.28655 10.1523L8.26562 10.1575C8.2619 10.158 8.25498 10.1585 8.24582 10.1585C8.19548 10.1585 8.12144 10.1444 8.05415 10.0772C7.62013 9.64316 6.42272 8.45431 6.42272 8.45431C6.3153 8.34724 6.2051 8.32475 6.13167 8.32475C5.9605 8.32475 5.80724 8.44843 5.75897 8.62583C5.42935 9.84564 5.77878 11.1577 6.67113 12.0502C7.33877 12.7177 8.22636 13.0853 9.17043 13.0853C9.65254 13.0853 10.1197 12.9889 10.5505 12.8061L13.1023 15.3579C12.2064 15.9312 11.1425 16.2649 10.0001 16.2649Z"
                    fill="#29324E"
                  ></path>
                </svg>