<svg width="55" height="32" viewBox="0 0 55 32" fill="none" xmlns="http://www.w3.org/2000/svg"><path d="M0.500153 26H5.00014L3.1826 31.7219H46.6621L54.2567 4.80592H48.0731L49.4084 0.5L45.3493 0.5H7.91538L0.500153 26ZM4.5351 21.9159L5.03735 20.1207L5.53959 18.3255L9.69671 3.46644H40.6606H42.5248H44.3889H45.7241L45.3493 4.80592H44.0142H42.15H40.2859H10.7129L6.93056 18.3256L6.42831 20.1208L5.92607 21.916L5.56637 23.2017H4.17539L4.5351 21.9159ZM43.9469 28.1315H7.91538L8.29013 26.792L8.79237 24.9968L9.29461 23.2016L9.65431 21.9159L10.1566 20.1207L10.6588 18.3255L13.4367 8.39634H39.2814H41.1455H43.0097H44.3449H46.209H48.0731H49.5155L43.9469 28.1315Z" fill="#29324E"></path> <path d="M31.5353 14.3047H35.3325L36.2926 10.8727H32.4954L32.8417 9.63525H29.2778L28.9316 10.8727H24.3721L22.287 18.3254L21.8455 19.9035H26.4051L26.3443 20.1206L25.8421 21.9158L25.7989 22.0701H21.931L21.6145 23.2015L21.1122 24.9967L20.9708 25.5022H24.8387L24.4779 26.7919H28.0417L28.4025 25.5022H32.8379L32.9793 24.9967L33.4816 23.2015L33.8413 21.9158L34.3435 20.1206L34.8457 18.3254L35.3644 16.4715H30.9291L31.5353 14.3047ZM30.2774 21.9158L30.2342 22.0701H29.3627L29.4059 21.9158L29.9081 20.1206L29.9689 19.9035H30.8404L30.7796 20.1206L30.2774 21.9158ZM26.3695 16.4715L26.9757 14.3048H27.9714L27.3653 16.4715H26.3695Z" fill="#29324E"></path></svg>