<svg width="20" height="21" viewBox="0 0 20 21" fill="none" xmlns="http://www.w3.org/2000/svg" class="sale-icon"><path d="M17.8448 0.5H13.217C12.2011 0.5 10.8424 1.06274 10.1242 1.78113L0.629272 11.2759C0.223389 11.6816 0 12.2227 0 12.7997C0 13.3766 0.223541 13.9177 0.629272 14.3234L6.17645 19.8707C6.58218 20.2765 7.12341 20.5 7.7002 20.5C8.27713 20.5 8.81821 20.2765 9.22409 19.8707L18.7189 10.3758C19.4373 9.65756 20 8.29892 20 7.28299V2.65485C19.9998 1.46664 19.0331 0.5 17.8448 0.5ZM16.7216 4.64062C16.6127 4.75003 16.4615 4.81244 16.3072 4.81244C16.153 4.81244 16.002 4.74988 15.8931 4.64062C15.7837 4.53168 15.7213 4.38077 15.7213 4.2265C15.7213 4.07208 15.7838 3.92102 15.8931 3.81207C16.0017 3.70312 16.153 3.64056 16.3072 3.64056C16.4615 3.64056 16.6127 3.70312 16.7216 3.81207C16.8306 3.92102 16.8932 4.07224 16.8932 4.2265C16.8932 4.38077 16.8306 4.53168 16.7216 4.64062Z" fill="#29324E"></path> <path d="M5.44182 13.4487C5.2288 13.2359 5.28206 12.9252 5.60142 12.6055C5.97435 12.2328 6.24504 12.2993 6.38267 12.1618C6.54243 12.0021 6.40922 11.7268 6.30714 11.6249C6.01417 11.3319 5.37071 11.8511 5.10887 12.113C4.59846 12.6234 4.25682 13.4178 4.91798 14.0791C5.96977 15.1309 7.19032 13.5021 7.85606 14.1679C8.12232 14.4341 8.01139 14.7846 7.74497 15.0511C7.2924 15.5036 6.83082 15.2818 6.64878 15.4637C6.5113 15.6013 6.58226 15.9031 6.70646 16.0275C6.96388 16.2849 7.70072 16.134 8.28208 15.5525C8.89457 14.9401 9.00993 14.1677 8.37531 13.5331C7.22587 12.3837 5.99205 13.9993 5.44182 13.4487Z" fill="white" class="xam"></path> <path d="M11.646 11.5409L7.99774 9.60593C7.8247 9.5127 7.59842 9.61478 7.42981 9.78354C7.26562 9.94757 7.16339 10.174 7.25662 10.3472L9.19159 13.9953C9.20486 14.0174 9.21829 14.0395 9.22714 14.0485C9.3692 14.1904 9.67544 14.0795 9.83062 13.9242C9.92828 13.8267 9.97284 13.72 9.91073 13.6135L9.48898 12.8547L10.5054 11.8383L11.2642 12.26C11.3708 12.322 11.4772 12.2777 11.5749 12.1801C11.7302 12.0247 11.8367 11.7139 11.6991 11.5764C11.6859 11.5632 11.6681 11.5542 11.646 11.5409ZM9.15619 12.2822L8.17978 10.5334L9.92843 11.5099L9.15619 12.2822Z" fill="white" class="xam"></path> <path d="M13.3988 9.34407L12.3159 10.427L9.75518 7.8661C9.63083 7.7419 9.43124 7.83513 9.28918 7.97703C9.1427 8.12352 9.05389 8.31883 9.1781 8.44319L12.0629 11.328C12.1827 11.4478 12.3692 11.3857 12.4979 11.2569L13.9048 9.85005C14.0202 9.73469 13.9491 9.54823 13.8249 9.42402C13.6962 9.29524 13.5143 9.22856 13.3988 9.34407Z" fill="white" class="xam"></path> <path d="M16.1595 7.09868C16.0218 6.96105 15.8354 6.90779 15.72 7.02315L14.4641 8.2791L13.572 7.38707L14.2466 6.71248C14.3708 6.58828 14.3087 6.41066 14.2066 6.30858C14.0869 6.1888 13.9092 6.14455 13.7939 6.25991L13.1193 6.93435L12.2317 6.04674L13.4876 4.79094C13.603 4.67543 13.5497 4.48912 13.4123 4.35149C13.2923 4.23171 13.106 4.1606 12.9817 4.28481L11.4018 5.86486C11.273 5.99349 11.2109 6.17995 11.3308 6.29973L14.2111 9.17998C14.331 9.29992 14.5173 9.23781 14.6461 9.10903L16.226 7.52913C16.3502 7.40493 16.2792 7.21846 16.1595 7.09868Z" fill="white" class="xam"></path></svg>