<svg width="21" height="20" viewBox="0 0 21 20" fill="none" xmlns="http://www.w3.org/2000/svg"><path d="M8.00033 18.3334C8.46056 18.3334 8.83366 17.9603 8.83366 17.5001C8.83366 17.0398 8.46056 16.6667 8.00033 16.6667C7.54009 16.6667 7.16699 17.0398 7.16699 17.5001C7.16699 17.9603 7.54009 18.3334 8.00033 18.3334Z" stroke="#005EC4" stroke-width="2" stroke-linecap="round" stroke-linejoin="round"></path> <path d="M17.1663 18.3334C17.6266 18.3334 17.9997 17.9603 17.9997 17.5001C17.9997 17.0398 17.6266 16.6667 17.1663 16.6667C16.7061 16.6667 16.333 17.0398 16.333 17.5001C16.333 17.9603 16.7061 18.3334 17.1663 18.3334Z" stroke="#005EC4" stroke-width="2" stroke-linecap="round" stroke-linejoin="round"></path> <path d="M1.33301 0.833252H4.66634L6.89967 11.9916C6.97588 12.3752 7.1846 12.7199 7.4893 12.9652C7.79399 13.2105 8.17526 13.3407 8.56634 13.3333H16.6663C17.0574 13.3407 17.4387 13.2105 17.7434 12.9652C18.0481 12.7199 18.2568 12.3752 18.333 11.9916L19.6663 4.99992H5.49967" stroke="#005EC4" stroke-width="2" stroke-linecap="round" stroke-linejoin="round"></path></svg>