<svg width="24" height="25" viewBox="0 0 24 25" fill="none" xmlns="http://www.w3.org/2000/svg">
<g id="layers-three-01">
<path id="Icon" d="M2 12.2241L11.6422 17.0452C11.7734 17.1108 11.839 17.1436 11.9078 17.1565C11.9687 17.168 12.0313 17.168 12.0922 17.1565C12.161 17.1436 12.2266 17.1108 12.3578 17.0452L22 12.2241M2 17.2241L11.6422 22.0452C11.7734 22.1108 11.839 22.1436 11.9078 22.1565C11.9687 22.168 12.0313 22.168 12.0922 22.1565C12.161 22.1436 12.2266 22.1108 12.3578 22.0452L22 17.2241M2 7.22412L11.6422 2.40301C11.7734 2.33742 11.839 2.30462 11.9078 2.29172C11.9687 2.28028 12.0313 2.28028 12.0922 2.29172C12.161 2.30462 12.2266 2.33742 12.3578 2.40301L22 7.22412L12.3578 12.0452C12.2266 12.1108 12.161 12.1436 12.0922 12.1565C12.0313 12.168 11.9687 12.168 11.9078 12.1565C11.839 12.1436 11.7734 12.1108 11.6422 12.0452L2 7.22412Z" stroke="#667085" stroke-width="2" stroke-linecap="round" stroke-linejoin="round"/>
</g>
</svg>
