<svg width="24" height="25" viewBox="0 0 24 25" fill="none" xmlns="http://www.w3.org/2000/svg">
<g id="pie-chart-03">
<path id="Icon" d="M12 2.22412C13.3132 2.22412 14.6136 2.48278 15.8268 2.98533C17.0401 3.48787 18.1425 4.22447 19.0711 5.15306C19.9997 6.08164 20.7363 7.18403 21.2388 8.39729C21.7413 9.61055 22 10.9109 22 12.2241M12 2.22412V12.2241M12 2.22412C6.47715 2.22412 2 6.70127 2 12.2241C2 17.747 6.47715 22.2241 12 22.2241C17.5228 22.2241 22 17.747 22 12.2241M12 2.22412C17.5228 2.22412 22 6.70128 22 12.2241M22 12.2241L12 12.2241M22 12.2241C22 13.8022 21.6265 15.3579 20.9101 16.764C20.1936 18.1701 19.1546 19.3867 17.8779 20.3143L12 12.2241" stroke="#667085" stroke-width="2" stroke-linecap="round" stroke-linejoin="round"/>
</g>
</svg>
