<svg width="24" height="25" viewBox="0 0 24 25" fill="none" xmlns="http://www.w3.org/2000/svg">
<g id="users-01">
<path id="Icon" d="M22 21.2241V19.2241C22 17.3603 20.7252 15.7942 19 15.3501M15.5 3.51488C16.9659 4.10827 18 5.54543 18 7.22412C18 8.90281 16.9659 10.34 15.5 10.9334M17 21.2241C17 19.3604 17 18.4285 16.6955 17.6934C16.2895 16.7133 15.5108 15.9346 14.5307 15.5286C13.7956 15.2241 12.8638 15.2241 11 15.2241H8C6.13623 15.2241 5.20435 15.2241 4.46927 15.5286C3.48915 15.9346 2.71046 16.7133 2.30448 17.6934C2 18.4285 2 19.3604 2 21.2241M13.5 7.22412C13.5 9.43326 11.7091 11.2241 9.5 11.2241C7.29086 11.2241 5.5 9.43326 5.5 7.22412C5.5 5.01498 7.29086 3.22412 9.5 3.22412C11.7091 3.22412 13.5 5.01498 13.5 7.22412Z" stroke="#667085" stroke-width="2" stroke-linecap="round" stroke-linejoin="round"/>
</g>
</svg>
